<svg xmlns="http://www.w3.org/2000/svg" xmlns:xlink="http://www.w3.org/1999/xlink" width="239" zoomAndPan="magnify" viewBox="0 0 179.25 162.75" height="217" preserveAspectRatio="xMidYMid meet" version="1.2"><defs><clipPath id="9cf1996a20"><path d="M 29.957031 16 L 148 16 L 148 146 L 29.957031 146 Z M 29.957031 16 "/></clipPath></defs><g id="f74941c7f1"><g clip-rule="nonzero" clip-path="url(#9cf1996a20)"><path style=" stroke:none;fill-rule:nonzero;fill:#b60f68;fill-opacity:1;" d="M 76.210938 16.058594 C 75.617188 16 75.171875 16.058594 74.855469 16.058594 L 74.636719 16.058594 C 70.296875 16.375 66.003906 16.6875 61.550781 18.054688 L 61.464844 18.082031 L 61.382812 18.117188 C 58.46875 19.207031 55.925781 20.328125 54.875 20.136719 C 54.742188 20.074219 54.644531 20.027344 54.257812 19.835938 C 53.726562 19.566406 52.78125 19.15625 51.632812 19.15625 C 50.824219 19.15625 50.011719 19.265625 49.164062 19.617188 C 48.320312 19.953125 47.316406 20.570312 46.699219 21.792969 C 46.273438 22.640625 46.226562 23.824219 46.3125 24.40625 C 46.324219 24.261719 46.359375 24.320312 45.476562 24.9375 C 44.496094 25.628906 42.574219 26.558594 41.835938 29.148438 L 41.835938 29.195312 L 41.8125 29.246094 C 41.253906 31.492188 41.546875 32.945312 41.519531 33.1875 C 41.351562 33.730469 40.433594 34.277344 38.582031 35.386719 L 38.460938 35.460938 C 35.363281 37.53125 32.703125 40.167969 30.902344 43.78125 C 30.585938 44.398438 29.957031 45.367188 29.957031 47.023438 C 29.957031 49.1875 31.105469 50.21875 31.796875 50.957031 C 32.484375 51.691406 33.089844 52.347656 32.957031 52.152344 L 33.03125 52.261719 L 33.113281 52.359375 C 33.320312 52.613281 33.394531 53.554688 32.910156 55.019531 C 32.523438 56.15625 31.445312 57.558594 30.585938 59.628906 C 29.945312 60.957031 29.957031 62.203125 29.957031 62.507812 L 29.957031 63.789062 L 31.929688 65.761719 L 32.085938 65.878906 C 34.785156 67.984375 37.09375 70.015625 39.078125 72.277344 L 39.003906 72.183594 C 40.589844 74.167969 42.199219 74.890625 43.527344 75.691406 C 45.234375 76.71875 47.507812 78.253906 50.691406 77.613281 C 52.042969 77.347656 52.976562 76.828125 53.675781 76.523438 C 54.378906 76.210938 54.777344 76.136719 54.730469 76.136719 C 54.511719 76.136719 54.886719 76.160156 55.417969 76.320312 C 55.890625 76.453125 56.605469 76.632812 57.488281 76.683594 C 60.886719 77.164062 63.246094 75.386719 64.25 74.988281 C 64.152344 75.011719 64.625 74.917969 65.121094 75.035156 C 65.601562 75.15625 66.097656 75.460938 66.160156 75.53125 L 66.390625 75.75 L 66.632812 75.921875 C 66.4375 75.785156 66.546875 75.835938 66.859375 76.292969 C 67.164062 76.742188 67.695312 77.589844 68.722656 78.316406 C 70.261719 79.441406 71.867188 79.511719 73.367188 79.269531 C 73.429688 79.367188 73.453125 79.355469 73.5 79.453125 C 73.816406 80.070312 73.925781 80.878906 73.925781 80.46875 C 73.925781 80.578125 73.875 80.820312 73.742188 81.433594 C 73.609375 81.957031 73.429688 82.875 73.648438 83.976562 C 73.972656 87.398438 74.601562 90.351562 77.058594 93.519531 C 78.933594 95.914062 79.753906 97.824219 79.789062 100.765625 C 79.671875 101.902344 79.125 103.242188 78.398438 104.9375 C 77.648438 106.679688 76.707031 108.796875 76.707031 111.433594 C 76.707031 114.636719 78.410156 116.972656 79.753906 118.796875 C 81.097656 120.625 82.160156 122.148438 82.378906 123.019531 C 82.535156 123.660156 82.546875 125.195312 82.984375 126.984375 C 83.722656 130.238281 85.136719 133.046875 86.78125 135.671875 L 86.804688 135.707031 L 86.832031 135.753906 C 87.820312 137.242188 88.113281 137.375 88.171875 137.449219 L 88.171875 138.671875 C 88.171875 141.875 90.230469 144.199219 92.902344 145.273438 L 92.988281 145.296875 L 93.070312 145.335938 C 95.320312 146.085938 96.882812 145.40625 98.117188 145.09375 C 99.976562 144.898438 102.347656 144.546875 104.769531 143.75 C 107.332031 142.914062 109.992188 141.742188 111.769531 139.214844 L 111.953125 138.949219 L 112.074219 138.660156 C 112.90625 136.722656 114.019531 134.859375 115.132812 133.746094 C 115.59375 133.289062 116.222656 132.707031 116.816406 131.738281 C 117.152344 131.183594 117.09375 130.226562 117.203125 129.382812 L 117.890625 129.382812 L 118.195312 129.320312 C 120.054688 128.957031 121.386719 127.578125 122.015625 126.261719 C 122.632812 124.953125 122.777344 123.625 122.449219 122.207031 C 122.101562 120.636719 121.265625 119.585938 120.722656 118.917969 C 120.308594 118.410156 120.203125 118.21875 120.066406 118.011719 C 120.128906 117.902344 120.128906 117.832031 120.238281 117.722656 C 120.746094 117.152344 121.53125 116.511719 121.941406 116.257812 C 123.707031 115.410156 126.539062 114.382812 128.097656 111.273438 L 128.160156 111.152344 L 128.207031 111.03125 C 129.089844 108.820312 129.089844 106.292969 128.207031 104.078125 L 128.367188 104.632812 C 127.664062 101.101562 126.492188 98.417969 126.238281 95.949219 L 126.226562 95.792969 L 126.1875 95.648438 C 125.898438 94.136719 127.070312 91.703125 128.609375 88.921875 C 129.503906 87.617188 130.992188 86.296875 132.625 85.210938 L 132.683594 85.160156 L 132.757812 85.113281 C 135.972656 82.707031 140.292969 79.136719 143.558594 75.097656 C 145.203125 73.078125 146.59375 70.949219 147.378906 68.589844 C 148.164062 66.230469 148.261719 63.4375 146.933594 61.007812 L 145.09375 57.667969 L 142.203125 60.148438 C 140.847656 61.308594 137.484375 62.554688 134.957031 62.820312 C 134.558594 62.785156 134.136719 62.710938 134.0625 62.75 C 133.988281 62.6875 133.953125 62.613281 133.976562 62.664062 L 133.808594 62.324219 L 133.554688 62.035156 C 132.320312 60.59375 131.390625 57.269531 128.269531 54.582031 L 128.195312 54.523438 L 128.113281 54.460938 C 126.613281 53.324219 125.765625 52.867188 125.328125 52.285156 L 125.195312 52.105469 L 125.039062 51.960938 C 124.53125 51.449219 123.925781 50.074219 123.308594 48.210938 L 123.285156 48.160156 C 121.617188 43.394531 121.605469 38.96875 119.210938 33.152344 L 119.171875 33.042969 L 119.125 32.945312 C 118.859375 32.414062 118.519531 31.601562 117.867188 30.671875 C 117.203125 29.738281 115.773438 28.445312 113.863281 28.445312 L 111.480469 28.445312 L 111.261719 28.46875 C 109.945312 28.664062 108.421875 28.289062 106.484375 27.527344 C 104.597656 26.800781 102.421875 25.761719 99.867188 25.179688 C 99.046875 24.925781 98.210938 24.78125 97.257812 24.855469 C 96.277344 24.925781 95.066406 25.214844 94.027344 26.257812 C 92.960938 27.320312 92.78125 28.375 92.613281 29.050781 C 92.429688 28.941406 92.117188 28.699219 91.183594 28.082031 C 89.007812 26.558594 86.515625 25.808594 84.195312 25.035156 C 82.863281 24.597656 82.113281 24.199219 81.097656 23.765625 C 81.121094 23.703125 81.183594 23.59375 81.195312 23.535156 C 81.714844 22 81.410156 20.8125 80.988281 19.75 C 80.554688 18.683594 79.925781 17.679688 78.738281 16.882812 L 78.582031 16.785156 L 78.398438 16.6875 C 77.542969 16.265625 76.816406 16.109375 76.210938 16.058594 Z M 143.59375 99.664062 C 142.664062 101.527344 141.429688 103.691406 139.878906 104.609375 C 138.648438 105.238281 137.097656 105.855469 136.480469 107.101562 C 135.550781 108.648438 136.480469 110.5 136.167969 112.046875 C 136.167969 112.664062 135.851562 113.28125 135.539062 113.898438 C 135.234375 115.449219 135.550781 117.308594 136.167969 118.859375 C 136.480469 119.789062 137.097656 121.023438 138.03125 121.335938 C 138.648438 121.335938 139.566406 121.023438 140.183594 120.40625 C 140.8125 119.789062 141.429688 118.554688 141.730469 117.625 C 142.046875 116.691406 142.046875 115.761719 142.046875 114.84375 C 142.359375 112.046875 143.90625 109.253906 144.523438 106.472656 C 144.839844 104.609375 144.839844 102.757812 144.523438 100.910156 C 144.210938 100.28125 143.90625 99.664062 143.59375 99.664062 Z M 115.726562 129.382812 L 115.738281 129.382812 C 115.738281 129.394531 115.726562 129.394531 115.726562 129.40625 C 115.640625 129.429688 115.933594 129.382812 115.726562 129.382812 Z M 115.726562 129.382812 "/></g></g></svg>