<svg xmlns="http://www.w3.org/2000/svg" xmlns:xlink="http://www.w3.org/1999/xlink" width="239" zoomAndPan="magnify" viewBox="0 0 179.25 162.75" height="217" preserveAspectRatio="xMidYMid meet" version="1.2"><defs><clipPath id="83d8da9ea6"><path d="M 6 24 L 172.390625 24 L 172.390625 128 L 6 128 Z M 6 24 "/></clipPath></defs><g id="951fea7728"><path style=" stroke:none;fill-rule:nonzero;fill:#b60f68;fill-opacity:1;" d="M 78.664062 122.859375 C 78.25 122.980469 77.746094 123.050781 77.394531 122.945312 C 77.148438 122.875 77.132812 122.34375 76.734375 122.535156 C 76.550781 122.625 76.535156 123.109375 76.550781 123.28125 C 76.617188 124.023438 78.054688 125.195312 78.683594 125.628906 C 78.847656 125.742188 79.109375 125.832031 79.257812 125.972656 C 79.429688 126.140625 79.484375 126.355469 79.652344 126.519531 C 79.875 126.738281 80.210938 126.742188 80.339844 127.085938 C 80.453125 127.40625 80.046875 127.5625 80.160156 127.867188 C 80.285156 128.199219 80.679688 128.171875 80.867188 128.421875 C 81.058594 128.683594 81.054688 128.984375 81.199219 129.269531 C 81.363281 129.589844 81.816406 130.539062 82.117188 130.652344 C 82.085938 131.320312 83.171875 132.371094 83.734375 132.84375 C 84.609375 133.570312 85.402344 134.257812 86.175781 135.035156 C 86.160156 134.855469 86.265625 134.679688 86.273438 134.542969 C 86.554688 134.59375 86.808594 134.726562 86.976562 134.925781 C 87.121094 134.359375 87.257812 133.03125 87.074219 132.480469 C 87.625 132.03125 87.140625 131.511719 86.613281 131.414062 C 86.492188 131.601562 86.257812 131.664062 86.128906 131.8125 C 85.5 131.375 86.015625 131.238281 85.859375 130.828125 C 85.726562 130.480469 85.234375 130.480469 85.511719 129.964844 C 85.125 129.714844 84.699219 129.433594 84.683594 128.96875 C 84.851562 128.9375 84.984375 128.785156 85.167969 128.765625 C 85.382812 127.773438 83.949219 128.503906 83.5 128.496094 C 83.480469 128.363281 83.480469 128.246094 83.5 128.117188 C 83.710938 128.113281 83.886719 128.003906 84.070312 128 C 84 127.949219 83.515625 127.761719 83.488281 127.707031 C 83.386719 127.507812 83.421875 127.113281 83.304688 126.917969 C 82.96875 126.378906 82.347656 126.421875 81.980469 126.019531 C 82.035156 126.121094 82.074219 126.378906 82.125 126.484375 C 81.457031 126.570312 81.691406 126.039062 81.445312 125.648438 C 81.21875 125.292969 80.773438 124.984375 80.46875 124.699219 C 79.828125 124.109375 79.511719 123.238281 78.679688 123.101562 C 78.605469 122.941406 78.722656 122.9375 78.753906 122.859375 "/><path style=" stroke:none;fill-rule:nonzero;fill:#b60f68;fill-opacity:1;" d="M 91.941406 131.828125 C 91.894531 131.859375 91.375 130.894531 91.359375 130.488281 C 92.375 130.15625 90.628906 129.433594 90.515625 129.015625 C 90.464844 128.820312 90.664062 128.390625 90.652344 128.355469 C 90.6875 128.480469 90.449219 127.722656 90.4375 127.914062 C 90.457031 127.617188 90.570312 127.21875 90.601562 126.847656 C 91.09375 126.625 91.589844 126.957031 91.917969 126.675781 C 92.085938 126.914062 92.296875 127.015625 92.539062 127.144531 C 92.832031 126.648438 92.34375 126.246094 92.808594 125.734375 C 93.085938 125.425781 93.433594 125.539062 93.886719 125.394531 C 94.933594 125.054688 95.1875 123.996094 95.65625 123.121094 C 95.890625 123.128906 96.109375 123.121094 96.34375 123.121094 C 96.773438 124.117188 97.433594 121.640625 97.691406 121.328125 C 98.136719 121.507812 99.332031 121.101562 98.886719 122.171875 C 99.804688 122.191406 100.207031 122.605469 100.984375 122.789062 C 100.675781 123.210938 100.089844 123.332031 99.5625 123.296875 C 100.117188 123.90625 100.042969 124.214844 98.972656 124.140625 C 98.96875 124.507812 99.292969 124.800781 99.382812 125.226562 C 99.46875 125.632812 99.449219 126.167969 99.457031 126.570312 C 99.375 126.59375 99.304688 126.574219 99.226562 126.597656 C 99.40625 126.964844 100.328125 127.4375 100.664062 127.761719 C 100.304688 128.390625 99.53125 127.546875 99.042969 128.269531 C 98.703125 128.773438 99.144531 129.546875 98.558594 129.871094 C 98.503906 129.769531 98.449219 129.710938 98.394531 129.636719 C 98.203125 129.878906 98.160156 130.128906 98.027344 130.390625 C 98 130.445312 97.699219 131.035156 97.710938 130.976562 C 97.617188 131.476562 97.90625 131.871094 97.589844 132.417969 C 97.421875 132.707031 96.777344 133.332031 96.417969 133.253906 C 96.34375 133.238281 96.273438 132.765625 96.085938 132.65625 C 95.832031 132.5 95.601562 132.515625 95.339844 132.660156 C 95.304688 132.449219 95.148438 132.328125 95.144531 132.09375 C 94.847656 132.070312 94.535156 132.070312 94.238281 132.09375 C 94.25 132.167969 94.265625 132.269531 94.277344 132.339844 C 93.945312 132.292969 93.609375 132.417969 93.308594 132.492188 C 93.214844 132.210938 93.203125 131.933594 93.285156 131.667969 C 92.84375 131.734375 92.578125 132.097656 92.113281 131.910156 "/><path style=" stroke:none;fill-rule:nonzero;fill:#b60f68;fill-opacity:1;" d="M 88.472656 135.464844 C 88.183594 135.640625 87.203125 135.316406 87.300781 136.039062 C 87.882812 136.105469 88.152344 136.660156 87.804688 137.140625 C 88.648438 136.828125 89.140625 136.90625 89.996094 136.984375 C 91.066406 137.085938 91.265625 137.199219 92.070312 137.753906 C 92.878906 138.308594 93.453125 138.074219 94.308594 138 C 94.792969 137.960938 96.382812 138.414062 95.761719 137.492188 C 95.523438 137.136719 94.324219 136.980469 93.882812 136.757812 C 93.097656 136.363281 92.730469 136.113281 91.953125 136.25 C 91.273438 136.371094 90.917969 136.523438 90.226562 136.164062 C 89.953125 136.019531 89.78125 135.742188 89.507812 135.613281 C 89.21875 135.484375 88.664062 135.554688 88.722656 135.464844 "/><path style=" stroke:none;fill-rule:nonzero;fill:#b60f68;fill-opacity:1;" d="M 105.726562 120.914062 C 105.40625 121.601562 106.042969 122.78125 107.148438 122.109375 C 107.207031 122.207031 107.289062 122.28125 107.335938 122.347656 C 107.484375 121.992188 107.199219 120.097656 107.996094 120.824219 C 108.019531 120.269531 107.707031 119.410156 107.410156 118.972656 C 107.933594 118.730469 107.773438 118.09375 107.234375 117.894531 C 106.957031 118.15625 106.90625 118.496094 107.136719 118.785156 C 106.722656 118.929688 106.136719 118.753906 106.136719 119.375 C 105.898438 119.648438 105.574219 119.941406 105.140625 119.800781 C 105.253906 119.636719 105.222656 119.375 105.292969 119.234375 C 104.859375 119.144531 104.4375 119.367188 104.359375 119.804688 C 103.40625 119.652344 103.527344 120.75 103.523438 121.351562 C 104.015625 120.941406 103.8125 120.332031 104.460938 120.085938 C 104.984375 119.886719 105.371094 120.238281 105.714844 120.503906 C 105.75 120.667969 105.746094 121.042969 105.722656 121.148438 C 105.644531 121.179688 105.558594 121.183594 105.472656 121.167969 "/><path style=" stroke:none;fill-rule:nonzero;fill:#b60f68;fill-opacity:1;" d="M 91.519531 107.976562 C 91.40625 107.859375 89.550781 108.253906 90.226562 107.039062 C 90.550781 106.457031 91.796875 106.527344 92.359375 106.3125 C 92.039062 106.863281 91.480469 107.460938 91.621094 108.152344 C 91.703125 108.089844 91.722656 108.003906 91.6875 107.890625 "/><path style=" stroke:none;fill-rule:nonzero;fill:#b60f68;fill-opacity:1;" d="M 102.429688 103.660156 C 102.457031 103.511719 103.9375 100.210938 102.769531 100.695312 C 101.824219 101.085938 101.597656 103.824219 102.597656 103.746094 "/><path style=" stroke:none;fill-rule:nonzero;fill:#b60f68;fill-opacity:1;" d="M 103.105469 111.613281 C 103.085938 111.625 103.238281 111.753906 103.039062 111.6875 C 102.851562 111.0625 103.691406 110.582031 103.886719 110.109375 C 104.15625 109.46875 103.609375 108.957031 103.875 108.484375 C 101.863281 106.429688 102.414062 110.5 101.835938 111.03125 C 101.753906 110.902344 101.558594 110.78125 101.472656 110.625 C 100.75 111.707031 102.976562 112.28125 102.078125 112.96875 C 102.394531 113.132812 102.839844 113.222656 103.175781 113.378906 C 103.207031 112.824219 103.125 112.226562 103.273438 111.699219 "/><path style=" stroke:none;fill-rule:nonzero;fill:#b60f68;fill-opacity:1;" d="M 122.730469 131.828125 C 122.042969 131.789062 121.515625 131.039062 120.871094 130.640625 C 120.4375 130.371094 118.460938 130.347656 119.066406 131.148438 C 117.992188 131.511719 117.238281 132.945312 116.242188 131.65625 C 115.835938 131.136719 116.480469 128.511719 114.78125 129.378906 C 114.132812 128.769531 113.210938 129.566406 112.710938 129.964844 C 112.980469 130.164062 113.335938 130.179688 113.667969 130.148438 C 113.808594 130.457031 113.792969 130.855469 113.691406 131.15625 C 114.324219 131.453125 114.988281 130.878906 115.699219 130.992188 C 115.75 131.25 115.777344 131.5625 115.78125 131.8125 C 115.136719 131.820312 114.375 131.960938 113.78125 131.839844 C 113.832031 132.414062 115.257812 132.027344 114.449219 133.015625 C 114.953125 133.296875 115.253906 132.800781 115.390625 132.339844 C 115.664062 132.855469 116.234375 132.703125 116.625 133.023438 C 116.890625 133.242188 116.773438 133.496094 117.066406 133.6875 C 117.230469 133.792969 117.636719 133.828125 117.824219 133.859375 C 118.609375 133.984375 118.703125 133.980469 119.332031 134.53125 C 119.722656 134.878906 119.941406 135.269531 120.519531 135.222656 C 120.632812 135.519531 120.730469 135.824219 120.800781 136.125 C 121.132812 136.1875 121.339844 136.703125 121.023438 136.992188 C 120.785156 137.210938 120.40625 136.792969 120.003906 137.046875 C 118.851562 137.769531 120.308594 138.972656 120.714844 137.503906 C 121.105469 137.8125 122.90625 138.390625 122.816406 138.761719 Z M 122.730469 131.828125 "/><path style=" stroke:none;fill-rule:nonzero;fill:#b60f68;fill-opacity:1;" d="M 111.648438 90.722656 C 113.148438 90.675781 111.164062 93.003906 112.566406 92.824219 C 112.59375 92.742188 112.566406 92.675781 112.589844 92.59375 C 112.683594 92.652344 113.003906 92.683594 113.09375 92.738281 C 113.183594 92.128906 113.515625 91.429688 113.492188 90.910156 C 113.457031 90.039062 112.695312 90.328125 112.480469 89.796875 C 112.171875 90.097656 111.417969 90.511719 111.554688 90.949219 C 111.648438 90.917969 111.738281 90.871094 111.820312 90.804688 "/><path style=" stroke:none;fill-rule:nonzero;fill:#b60f68;fill-opacity:1;" d="M 112.832031 89.199219 C 112.824219 89.253906 112.722656 89.394531 112.828125 89.3125 C 113.226562 89.246094 113.320312 89.011719 113.59375 88.789062 C 113.808594 88.613281 113.828125 88.433594 114.105469 88.269531 C 114.167969 88.230469 114.597656 88.179688 114.675781 88.164062 C 115.253906 88.058594 116.445312 88.144531 116.574219 87.347656 C 117.074219 87.753906 117.597656 87.992188 118.015625 87.449219 C 118.195312 87.214844 118.214844 86.621094 118.351562 86.316406 C 118.503906 85.976562 118.929688 86.140625 118.769531 85.488281 C 119.191406 85.492188 119.230469 85.875 119.105469 86.226562 C 119.367188 86.226562 120.269531 85.609375 120.515625 85.394531 C 120.765625 85.171875 120.898438 84.890625 121.125 84.699219 C 121.40625 84.457031 121.71875 84.375 121.949219 84.039062 C 122.363281 83.429688 122.359375 82.707031 122.300781 82.179688 C 122.242188 81.652344 121.851562 80.6875 122.882812 81.007812 C 123.007812 81.640625 123.457031 81.152344 123.730469 81.503906 C 123.949219 81.785156 123.785156 82.210938 123.742188 82.515625 C 123.664062 83.066406 123.335938 83.761719 123.222656 84.367188 C 122.316406 84.3125 122.941406 85.527344 122.714844 85.972656 C 121.972656 86.09375 122.5 86.847656 122.457031 87.1875 C 122.398438 87.660156 122.03125 88.082031 121.796875 88.285156 C 121.859375 88.164062 121.875 87.902344 121.933594 87.757812 C 121.339844 87.46875 121.289062 88.328125 120.710938 88.285156 C 120.703125 88.425781 120.621094 88.535156 120.601562 88.683594 C 120.175781 88.507812 119.910156 88.847656 119.507812 88.78125 C 119.085938 88.710938 119.046875 88.230469 118.511719 88.367188 C 118.277344 88.863281 118.871094 89.136719 118.609375 89.546875 C 118.589844 89.574219 117.714844 89.847656 117.652344 89.875 C 117.457031 89.953125 117.140625 90.710938 117.074219 89.792969 C 117.042969 89.371094 117.703125 89.148438 117.230469 88.773438 C 116.339844 88.070312 113.929688 89.609375 112.929688 89.527344 C 112.890625 89.339844 113.003906 89.28125 113.003906 89.285156 "/><path style=" stroke:none;fill-rule:nonzero;fill:#b60f68;fill-opacity:1;" d="M 122.050781 79.894531 C 121.800781 79.941406 121.167969 79.640625 121.433594 79.195312 C 121.632812 78.867188 122.710938 79.21875 122.335938 78.367188 C 122.632812 78.378906 122.933594 78.375 123.222656 78.359375 C 123.367188 77.5 124.1875 76.300781 123.480469 75.582031 C 124.042969 74.953125 124.28125 76.035156 124.59375 76.324219 C 124.941406 76.652344 125.511719 76.722656 125.941406 76.828125 C 126.429688 76.949219 127.371094 76.910156 127.46875 77.441406 C 127.628906 78.347656 126.5625 77.957031 126.109375 78.117188 C 125.5 78.335938 125.707031 78.859375 125.246094 79.195312 C 124.484375 79.757812 124.535156 78.9375 124.085938 78.703125 C 122.898438 78.09375 122.730469 79.542969 122.136719 80.0625 "/><g clip-rule="nonzero" clip-path="url(#83d8da9ea6)"><path style=" stroke:none;fill-rule:nonzero;fill:#b60f68;fill-opacity:1;" d="M 50.074219 41.199219 C 49.960938 41.539062 49.703125 41.765625 49.3125 41.847656 C 47.859375 40.222656 46.226562 41.332031 44.695312 42.339844 C 43.992188 42.800781 43.691406 43.269531 43.097656 43.609375 C 42.371094 44.019531 41.363281 44.136719 40.683594 44.722656 C 40.210938 45.132812 39.78125 45.746094 39.316406 46.265625 C 38.574219 47.097656 38.097656 46.953125 37.253906 47.449219 C 35.078125 48.726562 35.019531 51.546875 35.738281 53.761719 C 36.121094 54.949219 37.046875 56.03125 37.261719 57.1875 C 37.476562 58.359375 36.628906 58.933594 36.5 59.976562 C 36.292969 61.601562 37.085938 63.429688 37.261719 64.925781 C 37.367188 65.828125 36.917969 66.980469 36.726562 67.832031 L 36.816406 67.78125 C 36.464844 67.765625 36.144531 67.539062 35.800781 67.761719 C 35.625 67.875 35.679688 68.113281 35.53125 68.246094 C 35.410156 68.355469 35.292969 68.324219 35.152344 68.429688 C 34.746094 68.730469 34.5 68.722656 34.039062 68.796875 C 33.570312 68.871094 33.273438 68.980469 32.828125 69.113281 C 31.964844 69.367188 31.105469 69.394531 30.203125 69.242188 C 29.695312 69.15625 29.050781 68.808594 28.6875 69.363281 C 28.34375 69.890625 28.753906 71.234375 28.757812 71.839844 L 28.695312 71.917969 C 29.097656 72.160156 29.25 72.953125 29.515625 73.300781 C 29.363281 73.339844 29.175781 73.515625 29.023438 73.550781 C 29.054688 73.628906 29.097656 73.699219 29.113281 73.789062 C 30.273438 73.753906 31.46875 71.941406 32.335938 73.457031 C 32.84375 73.027344 33.417969 72.820312 33.667969 73.636719 C 33.773438 73.984375 33.71875 75.289062 33.566406 75.574219 C 32.996094 74.8125 32.363281 75.320312 31.722656 75.75 C 31.933594 76.015625 32.066406 76.375 32.046875 76.757812 C 31.761719 76.714844 31.578125 76.496094 31.542969 76.183594 C 31.210938 76.210938 30.875 76.289062 30.542969 76.359375 C 31.183594 76.878906 31.546875 77.742188 32.144531 78.222656 C 32.453125 78.476562 33.136719 78.582031 33.25 78.875 C 33.378906 79.203125 32.535156 79.535156 33.25 79.800781 C 33.363281 79.136719 33.96875 79.265625 34.414062 79.484375 C 34.484375 80 34.636719 80.089844 34.847656 80.398438 C 35.074219 80.722656 35.558594 80.539062 35.277344 81.164062 C 34.859375 82.089844 33.761719 81.167969 33.171875 81.429688 C 33.214844 82.199219 34.082031 82.21875 34.078125 82.839844 C 33.914062 82.796875 33.667969 82.84375 33.503906 82.777344 C 33.730469 83.246094 34.214844 83.449219 34.429688 83.867188 C 34.617188 84.226562 34.59375 84.878906 34.59375 85.304688 C 34.59375 86.152344 34.605469 85.960938 33.914062 86.167969 C 33.492188 86.289062 32.871094 86.683594 32.390625 86.578125 C 32.160156 86.527344 32.058594 86.238281 31.863281 86.175781 C 31.75 86.136719 31.269531 86.128906 31.191406 86.074219 C 30.820312 85.796875 30.769531 85.363281 30.347656 84.988281 L 30.46875 85.03125 C 30.191406 84.859375 29.632812 84.890625 29.402344 84.703125 C 29.210938 84.539062 29.1875 83.769531 29.210938 83.519531 C 29.796875 83.296875 29.464844 82.707031 29.757812 82.246094 C 30.015625 81.839844 30.648438 82.09375 30.421875 81.523438 C 30.40625 81.484375 30.085938 81.390625 30.007812 81.300781 C 29.898438 81.175781 29.90625 80.972656 29.820312 80.859375 C 29.535156 80.460938 29.441406 80.425781 28.945312 80.527344 L 28.863281 80.636719 C 27.6875 80.871094 25.558594 79.386719 25.183594 78.265625 C 24.15625 78.203125 23.824219 78.132812 22.992188 77.769531 C 22.238281 77.445312 21.652344 77.070312 20.78125 77.121094 C 20.753906 78.007812 21.695312 77.894531 21.9375 78.589844 C 22.046875 78.886719 21.621094 80.164062 21.5 80.632812 C 21.078125 80.878906 20.609375 81.074219 20.128906 80.90625 L 20.210938 80.972656 C 18.464844 81.355469 16.71875 80.425781 15.007812 80.234375 C 13.109375 80.015625 11.101562 80.191406 9.3125 80.886719 C 9.402344 80.796875 9.484375 80.691406 9.585938 80.605469 C 9.46875 80.671875 9.398438 80.789062 9.3125 80.886719 C 9.570312 81.011719 9.796875 81.195312 9.976562 81.414062 C 9.097656 81.664062 6.980469 80.703125 6.542969 81.921875 C 6.273438 82.679688 7.53125 83.519531 6.707031 84.183594 C 6.914062 84.285156 7.035156 84.210938 7.054688 83.984375 C 5.917969 85.476562 8.199219 86.488281 9.214844 87 C 9.46875 87 9.722656 87 9.976562 87 C 10.480469 87 10.988281 86.492188 11.496094 86.238281 C 13.273438 85.984375 14.796875 87 16.574219 86.238281 C 16.425781 86.402344 16.230469 86.457031 16.023438 86.390625 C 16.195312 86.304688 16.382812 86.25 16.574219 86.238281 C 16.476562 86.519531 16.386719 86.808594 16.382812 87.109375 L 15.992188 87.347656 C 16.453125 88.113281 15.726562 88.867188 16.898438 89.296875 C 17.136719 90.179688 16.347656 90.1875 16 90.738281 C 15.597656 91.367188 15.941406 92.148438 15.902344 92.832031 C 15.867188 93.453125 15.574219 93.96875 15.640625 94.625 C 15.710938 95.300781 15.871094 95.613281 15.726562 96.28125 C 15.542969 97.125 15.496094 97.121094 15.980469 97.90625 C 16.382812 98.566406 16.925781 99.234375 17.351562 99.933594 C 18.039062 101.058594 18.808594 102.007812 19.863281 102.828125 C 19.433594 104.0625 19.203125 104.289062 19.632812 105.507812 C 20.652344 105.667969 21.210938 106.410156 21.628906 107.292969 C 21.988281 108.046875 22.933594 109.195312 23.070312 110.019531 C 23.15625 110.550781 23.046875 110.8125 23.152344 111.347656 C 23.253906 111.875 23.402344 112.363281 23.527344 112.878906 C 23.710938 113.632812 23.695312 114.164062 24.589844 114.136719 C 25.058594 114.121094 26.164062 113.953125 26.636719 113.808594 C 27.238281 113.625 27.949219 113.113281 28.578125 112.789062 C 29.007812 112.570312 29.3125 112.480469 29.765625 112.386719 C 29.9375 112.347656 30.132812 112.429688 30.359375 112.371094 C 30.472656 112.339844 30.632812 112.152344 30.761719 112.097656 C 31.273438 111.878906 31.917969 111.632812 32.460938 111.507812 C 32.445312 111.441406 32.519531 111.335938 32.546875 111.292969 C 32.492188 111.226562 32.433594 111.164062 32.382812 111.101562 C 33.042969 110.253906 34.761719 109.335938 35.84375 109.398438 C 35.847656 109.144531 36.125 108.492188 36.339844 108.371094 C 36.585938 108.226562 36.914062 108.492188 37.214844 108.292969 C 37.414062 108.160156 37.398438 107.6875 37.652344 107.480469 C 37.820312 107.34375 38.242188 107.429688 38.46875 107.277344 C 38.546875 106.703125 38.5 106.058594 38.75 105.523438 C 39.273438 106.605469 40.347656 105.222656 40.5 104.585938 C 40.460938 104.757812 40.402344 103.957031 40.402344 103.972656 C 40.394531 103.863281 40.636719 103.664062 40.601562 103.484375 C 40.53125 103.105469 39.910156 102.902344 39.664062 102.699219 C 39.34375 102.445312 39.082031 102.054688 38.738281 101.8125 C 38.332031 101.527344 37.789062 101.710938 37.445312 101.304688 C 37.203125 101.023438 37.226562 100.640625 37.132812 100.289062 C 37.03125 99.90625 36.820312 99.511719 36.777344 98.945312 C 36.660156 99.011719 36.390625 99.195312 36.296875 99.273438 C 36.296875 99.523438 36.160156 99.746094 36.1875 100.003906 C 35.980469 100.019531 35.828125 100.1875 35.621094 100.203125 C 35.722656 102.328125 33.46875 101.234375 32.238281 101.617188 C 32.222656 101.101562 32.226562 99.675781 31.976562 99.257812 C 31.191406 97.945312 31.464844 100.507812 31.398438 100.675781 C 31.390625 100.214844 30.726562 99.597656 30.464844 99.328125 C 30.570312 98.726562 30.648438 98.695312 30.28125 98.21875 C 30.128906 98.023438 29.796875 98.167969 29.664062 98.019531 C 29.527344 97.859375 29.589844 97.519531 29.5 97.3125 C 29.066406 96.351562 29.050781 95.695312 28.003906 95.347656 C 28.082031 95.289062 28.128906 95.242188 28.234375 95.1875 C 28.160156 94.917969 28.253906 94.710938 28.328125 94.449219 C 28.484375 94.539062 28.839844 94.527344 28.996094 94.601562 C 29.011719 94.464844 29.105469 94.3125 29.113281 94.195312 C 29.417969 94.425781 29.703125 94.308594 30.042969 94.441406 C 30.582031 94.652344 30.46875 94.535156 30.847656 95.039062 C 31.328125 95.675781 31.371094 96.203125 31.136719 96.96875 C 31.886719 97.074219 32.367188 96.9375 33.070312 97.152344 C 33.703125 97.347656 33.757812 97.386719 34.289062 97.828125 C 34.691406 98.160156 35.179688 98.519531 35.640625 98.40625 C 36.191406 98.273438 36.5 97.574219 37.132812 97.503906 C 38.792969 97.320312 37.585938 99.046875 38.292969 99.710938 C 38.796875 100.183594 39.921875 99.828125 40.523438 99.882812 C 41.433594 99.960938 42.269531 100.710938 43.222656 100.511719 C 43.6875 100.414062 43.890625 100.191406 44.324219 100.128906 C 44.65625 100.085938 45.140625 100.214844 45.507812 100.191406 C 46.394531 100.136719 47.230469 99.617188 47.792969 100.273438 C 48.414062 101 48.261719 101.472656 49.300781 101.898438 C 48.289062 103.203125 50.777344 102.585938 51.160156 102.570312 C 51.28125 103.578125 50.242188 103.277344 49.742188 103.636719 C 50.085938 104.144531 50.339844 105.074219 51.007812 105.304688 C 51.535156 105.492188 51.765625 104.777344 52.335938 105.082031 C 52.558594 104.839844 52.871094 104.738281 53.195312 104.738281 C 53.097656 104.449219 53.113281 104.113281 53.117188 103.785156 C 53.160156 104.140625 53.511719 104.335938 53.871094 104.347656 C 53.796875 104.398438 53.757812 104.464844 53.640625 104.515625 C 53.617188 104.847656 53.675781 105.242188 53.566406 105.539062 C 53.476562 105.769531 53.054688 105.785156 53.023438 106.109375 C 52.988281 106.484375 53.5625 106.761719 53.691406 107.058594 C 53.8125 107.335938 53.78125 107.582031 53.816406 107.886719 C 53.898438 108.59375 53.820312 109.34375 53.882812 110.070312 C 53.964844 111.042969 54.390625 111.433594 54.894531 112.175781 C 55.34375 112.832031 55.308594 113.4375 55.574219 114.144531 C 55.839844 114.851562 56.402344 115.347656 56.65625 116.070312 C 57.003906 117.078125 57.15625 118.410156 57.808594 119.28125 C 58.730469 120.511719 59.226562 118.519531 59.886719 117.863281 C 60.371094 117.378906 60.730469 117.363281 60.660156 116.523438 C 61.308594 116.3125 61.234375 113.324219 61.238281 112.699219 C 61.242188 112.132812 61.53125 111.347656 61.9375 110.945312 C 62.28125 110.613281 63.367188 110.511719 63.082031 109.914062 C 63.820312 109.300781 64.53125 108.601562 65.28125 107.96875 C 65.871094 107.46875 66.144531 106.84375 66.652344 106.265625 C 67.378906 107.394531 67.773438 105.5 67.855469 105.242188 C 68.054688 104.625 68.136719 104.941406 68.519531 104.480469 C 68.695312 104.261719 68.75 103.96875 68.871094 103.660156 C 68.96875 103.855469 69.226562 104.074219 69.355469 104.257812 C 69.398438 104.152344 69.625 103.976562 69.675781 103.859375 C 70.160156 104.226562 70.675781 104.132812 70.707031 103.429688 C 71.003906 103.628906 71.402344 103.660156 71.734375 103.707031 C 71.632812 103.371094 70.992188 101.621094 71.859375 102.066406 C 71.765625 102.320312 71.761719 102.628906 71.734375 102.890625 C 71.84375 102.835938 72.113281 102.863281 72.222656 102.820312 C 72.292969 103.34375 72.816406 103.894531 72.992188 104.507812 C 73.257812 105.445312 73.394531 105.351562 74.089844 105.875 C 75.464844 106.910156 75.648438 108.71875 75.867188 110.289062 C 76.417969 110.425781 76.714844 110.703125 77.070312 110.011719 C 77.296875 110.21875 77.601562 110.292969 77.886719 110.070312 C 77.886719 109.675781 77.90625 109.214844 78.070312 108.882812 C 78.203125 109.363281 78.347656 109.625 78.582031 110.085938 C 78.742188 110.394531 78.894531 110.675781 78.980469 111.007812 C 79.164062 111.742188 79.1875 112.320312 79.445312 113.042969 C 79.664062 113.652344 79.972656 114.425781 80.039062 115.074219 C 80.085938 115.542969 79.742188 116.617188 80.257812 116.863281 C 80.273438 117.777344 79.105469 118.488281 79.507812 119.578125 C 80.058594 119.203125 80.386719 119.871094 80.628906 120.316406 C 80.78125 120.59375 80.863281 121.015625 81.03125 121.253906 C 81.136719 121.402344 81.386719 121.375 81.453125 121.5 C 81.648438 121.863281 81.644531 122.480469 81.878906 122.941406 C 82.125 123.421875 82.5 123.789062 82.742188 124.289062 C 83.179688 125.175781 83.816406 126.867188 84.925781 127.15625 C 86.089844 127.460938 85.867188 125.851562 84.933594 125.714844 C 84.71875 124.457031 85.226562 123.09375 84.242188 122.148438 C 83.453125 121.386719 82.320312 121.078125 81.527344 120.316406 C 81.753906 120.105469 81.726562 119.925781 81.777344 119.652344 C 81.121094 119.523438 81.441406 118.625 80.703125 118.695312 C 80.605469 117.925781 80.929688 117.027344 81.027344 116.257812 C 81.144531 115.332031 81.207031 114.394531 81.46875 113.476562 C 82.339844 113.195312 81.929688 114.011719 82.230469 114.386719 C 82.46875 114.675781 82.964844 114.699219 83.316406 114.96875 C 83.820312 115.355469 84.320312 116.9375 85.070312 116.347656 C 85.300781 117.078125 85.792969 116.835938 86.082031 117.273438 C 86.316406 117.625 86.238281 118.28125 86.378906 118.699219 C 87.011719 118.617188 87.207031 118.398438 87.699219 118.050781 C 87.675781 118.023438 87.5625 117.976562 87.53125 117.953125 C 87.570312 117.835938 87.703125 117.386719 87.773438 117.332031 C 88.113281 117.058594 88.164062 117.40625 88.558594 117.355469 C 89.0625 117.285156 89.652344 117.0625 90.015625 116.675781 C 90.589844 116.066406 90.570312 115.109375 90.667969 114.203125 C 90.757812 113.378906 90.972656 112.097656 90.421875 111.429688 C 90.214844 111.175781 89.820312 111.136719 89.554688 110.761719 C 89.296875 110.410156 89.097656 110.070312 88.847656 109.746094 C 88.378906 109.140625 87.738281 108.621094 87.375 107.96875 C 87.027344 107.339844 87.332031 106.449219 87.644531 105.769531 C 88.125 104.703125 89.796875 103.621094 90.738281 104.492188 C 90.738281 104.390625 90.769531 104.269531 90.769531 104.171875 C 90.8125 104.175781 90.9375 104.320312 90.945312 104.320312 C 91.9375 104.074219 91.140625 105.007812 91.359375 105.332031 C 91.386719 105.367188 91.632812 105.625 91.683594 105.664062 C 91.945312 105.386719 91.992188 104.972656 91.949219 104.597656 C 93.011719 104.554688 93.890625 104.210938 94.804688 103.65625 C 94.636719 103.234375 94.925781 102.71875 95.304688 102.480469 C 95.429688 103.746094 96.601562 102.972656 97.265625 102.722656 C 97.980469 102.460938 98.625 102.324219 98.894531 101.46875 C 98.910156 101.464844 99.085938 101.523438 99.109375 101.527344 C 99.394531 101.117188 100.066406 101.308594 99.902344 100.539062 C 100.492188 100.429688 99.972656 99.804688 100.3125 99.414062 C 100.464844 99.609375 100.722656 99.652344 100.890625 99.753906 C 100.871094 99.609375 100.9375 99.414062 100.917969 99.265625 C 101.476562 99.230469 101.589844 98.625 101.59375 98.167969 C 102.496094 98.359375 101.996094 97.519531 102.566406 97.398438 C 102.574219 97.085938 102.609375 97.164062 102.738281 96.890625 C 102.578125 96.425781 102.835938 96.003906 102.933594 95.558594 C 102.964844 95.660156 103.015625 95.746094 103.035156 95.851562 C 103.414062 95.414062 103.1875 95.023438 103.261719 94.53125 C 102.9375 94.617188 102.550781 94.742188 102.1875 94.675781 C 102.210938 94.113281 103.304688 93.707031 103.777344 93.507812 C 103.4375 92.445312 101.8125 93.058594 101.335938 92.164062 C 102.039062 92.101562 102.707031 92.496094 103.433594 92.472656 C 103.316406 92.027344 102.816406 92.226562 102.53125 91.898438 C 102.378906 91.722656 102.300781 90.894531 102.195312 90.625 C 102.046875 90.242188 101.925781 89.941406 101.734375 89.59375 C 101.585938 89.332031 101.695312 89.246094 101.5 89.039062 C 101.332031 88.867188 101.046875 89.007812 100.902344 88.785156 C 100.574219 88.265625 101.8125 87.472656 102.265625 87.09375 C 102.703125 86.730469 103.980469 86.515625 103.9375 85.792969 C 103.738281 85.820312 103.242188 85.992188 103.019531 85.890625 C 102.65625 85.730469 102.9375 85.539062 102.683594 85.296875 C 102.335938 84.957031 102.03125 84.722656 101.511719 84.890625 C 101.414062 85.414062 101.058594 86.132812 100.410156 85.960938 C 100.382812 85.5 100.519531 84.976562 100.164062 84.652344 C 100.109375 84.695312 100.132812 84.753906 100.066406 84.804688 C 99.835938 84.671875 98.992188 83.953125 98.976562 83.6875 C 98.941406 83.191406 99.484375 82.96875 99.867188 83.257812 C 100.496094 82.71875 101.410156 82.320312 102.195312 81.835938 C 102.601562 81.585938 102.976562 80.726562 103.589844 81.261719 C 104.269531 81.851562 103.125 82.289062 103.203125 82.835938 C 103.253906 82.835938 103.375 82.828125 103.417969 82.839844 C 102.558594 83.558594 104.101562 83.027344 104.417969 82.84375 C 105.03125 82.492188 105.375 82.375 106.066406 82.40625 C 106.59375 82.429688 106.917969 82.324219 107.148438 82.84375 C 107.1875 82.933594 106.972656 84.019531 106.898438 84.1875 C 106.558594 84.09375 106.457031 84.15625 106.328125 84.527344 C 106.8125 84.476562 107.304688 84.605469 107.523438 85.03125 C 107.996094 85.074219 108.183594 85.457031 108.679688 85.398438 C 108.546875 85.53125 108.480469 85.816406 108.355469 85.957031 C 108.464844 85.976562 108.574219 86.046875 108.683594 86.070312 C 108.671875 86.265625 108.675781 86.378906 108.535156 86.546875 C 108.417969 86.160156 108.320312 86.316406 108.109375 86.152344 C 108.09375 86.507812 108.089844 86.875 108.109375 87.230469 C 109.21875 87.195312 107.101562 89.136719 108.589844 89.003906 C 108.628906 88.457031 109.625 88.449219 110.046875 88.339844 C 110.882812 88.121094 110.96875 88.25 110.96875 87.496094 C 110.972656 86.894531 110.875 86.402344 110.738281 85.867188 C 110.558594 85.199219 110.304688 85.085938 109.890625 84.53125 C 109.683594 84.246094 109.207031 83.5 109.195312 83.164062 C 109.164062 82.445312 110.039062 82.148438 110.550781 81.765625 C 111.429688 81.113281 111.277344 79.964844 112.289062 79.527344 C 111.640625 78.476562 112.828125 78.53125 112.996094 77.765625 C 113.003906 77.746094 113.003906 77.726562 113.007812 77.707031 L 114.082031 77.890625 C 114.269531 78.105469 114.777344 78.867188 115.03125 78.613281 C 117.316406 77.597656 118.582031 75.570312 120.359375 73.539062 C 121.628906 72.015625 122.644531 70.242188 122.390625 68.210938 C 122.390625 67.703125 122.898438 67.195312 123.097656 66.703125 C 123.542969 65.851562 123.300781 65.503906 122.664062 64.84375 C 123.523438 65.316406 122.378906 63.621094 122.199219 63.4375 C 121.710938 62.9375 121.097656 62.585938 120.546875 63.171875 C 120.15625 63.585938 120.113281 64.171875 119.417969 64.207031 C 119.488281 64.007812 119.488281 63.800781 119.414062 63.605469 C 119.195312 63.707031 118.976562 63.828125 118.773438 63.953125 C 118.839844 63.390625 118.839844 63.136719 118.839844 62.628906 C 118.585938 62.121094 117.570312 62.375 117.824219 62.121094 C 119.347656 59.585938 121.886719 57.554688 124.421875 56.285156 C 126.199219 55.273438 128.480469 56.03125 130.511719 55.777344 C 130.765625 55.777344 131.015625 55.273438 131.273438 55.019531 C 132.035156 54.761719 132.035156 55.273438 132.09375 55.4375 C 132.304688 55.191406 132.238281 55.199219 132.09375 55.4375 C 132.867188 55.285156 133.535156 56.019531 134.316406 55.777344 C 134.082031 56.03125 133.796875 56.277344 133.433594 56.273438 C 133.488281 56.253906 133.589844 56.25 133.652344 56.230469 C 133.574219 56.234375 133.523438 56.25 133.433594 56.273438 C 134.570312 57.050781 135.585938 55.777344 136.851562 56.035156 C 136.851562 55.527344 136.597656 55.273438 136.347656 55.019531 C 137.988281 53.605469 140.171875 50.203125 142.609375 52.226562 C 142.65625 52.105469 142.742188 51.996094 142.757812 51.867188 C 142.667969 52.304688 142.519531 52.730469 142.3125 53.125 C 142.558594 53.128906 142.730469 53.296875 142.75 53.542969 C 143.195312 52.484375 144.71875 52.734375 144.972656 51.972656 C 145.480469 50.960938 145.734375 50.707031 146.242188 50.453125 C 146.75 50.199219 147.507812 50.453125 147.507812 50.957031 C 147.507812 51.214844 146.496094 51.214844 146.496094 51.71875 C 146.496094 52.734375 145.734375 54.003906 144.460938 53.945312 C 144.425781 54.066406 144.390625 54.152344 144.410156 54.269531 C 144.527344 54.117188 144.496094 54.128906 144.460938 53.945312 C 142.945312 55.273438 141.671875 57.554688 139.644531 57.808594 C 136.851562 60.347656 137.867188 64.40625 138.882812 67.453125 C 140.152344 67.195312 140.65625 66.183594 140.914062 64.914062 C 140.914062 64.660156 141.925781 64.660156 141.925781 64.40625 C 142.179688 62.886719 142.941406 62.632812 144.210938 62.378906 C 144.464844 61.617188 144.210938 60.347656 145.035156 59.832031 C 145.125 60.054688 145.144531 60.296875 145.15625 60.53125 C 146.085938 60.496094 145.113281 59.371094 145.101562 59 C 145.089844 58.738281 146.320312 57.503906 145.367188 57.507812 C 145.027344 57.507812 144.417969 58.695312 144.296875 57.628906 C 144.207031 56.835938 145.089844 55.808594 145.535156 55.269531 C 144.765625 54.878906 146.4375 54.726562 146.664062 54.730469 C 147.542969 54.738281 147.691406 53.941406 148.578125 53.820312 C 148.558594 54.070312 148.515625 54.320312 148.46875 54.5625 C 149.207031 54.332031 149.804688 53.667969 150.617188 53.683594 C 150.539062 53.734375 150.460938 53.78125 150.386719 53.835938 C 150.84375 53.890625 151.382812 53.507812 151.808594 53.746094 C 152.148438 53.9375 152.144531 54.40625 152.398438 54.671875 C 152.566406 53.75 153.652344 53.402344 154.402344 53.085938 C 155.609375 52.574219 156.75 51.914062 157.9375 51.351562 C 158.535156 51.066406 159.203125 50.695312 159.863281 50.570312 C 160.519531 50.441406 160.839844 50.976562 161.390625 50.957031 C 162.453125 50.929688 161.78125 49.238281 160.882812 49.339844 C 161.78125 48.476562 159.808594 48.519531 159.929688 47.757812 C 159.316406 47.738281 158.757812 47.535156 158.285156 47.175781 C 159.066406 47 159.71875 47.039062 160.515625 47.105469 C 160.882812 47.136719 162.90625 47.109375 162.324219 46.40625 C 162.597656 46.527344 162.90625 46.472656 163.085938 46.222656 C 162.871094 46.070312 162.660156 45.929688 162.425781 45.816406 C 162.730469 45.714844 162.765625 45.410156 162.660156 45.136719 C 162.847656 45.113281 163.03125 45.074219 163.214844 45.019531 C 163.132812 44.902344 163.148438 44.75 163.070312 44.628906 C 163.472656 44.566406 164.238281 44.570312 164.335938 45.09375 C 164.433594 45.59375 163.726562 45.707031 163.851562 46.210938 C 164.558594 45.839844 165.585938 45.8125 166.328125 46.101562 C 167.003906 46.367188 166.988281 46.980469 167.492188 47.40625 C 168.308594 48.101562 170.003906 48.019531 170.425781 46.910156 C 170.167969 46.964844 169.914062 46.878906 169.765625 46.660156 C 170.351562 46.816406 169.96875 46.292969 169.765625 46.121094 C 169.566406 45.949219 168.945312 45.710938 169.578125 45.5625 C 170.308594 45.386719 171.234375 46.917969 171.449219 45.46875 C 171.449219 45.589844 171.457031 45.652344 171.421875 45.773438 C 171.328125 45.226562 171.84375 45.578125 172.125 45.628906 C 172.394531 43.675781 169.996094 44.054688 168.785156 43.675781 C 168.878906 43.835938 169.035156 43.953125 169.203125 43.972656 C 169.085938 43.851562 168.9375 43.746094 168.785156 43.675781 C 169.320312 44.097656 169.390625 45.171875 168.542969 45.058594 C 167.640625 44.941406 167.4375 43.6875 167.082031 43.035156 C 166.179688 41.382812 164.066406 41.390625 162.457031 40.886719 C 161.511719 40.589844 160.753906 39.992188 159.839844 39.648438 C 158.925781 39.308594 157.960938 39.179688 157.003906 39.082031 C 156.058594 38.984375 155.101562 38.921875 154.175781 38.691406 C 153.746094 38.585938 153.617188 38.480469 153.261719 38.730469 C 153.054688 38.875 153.046875 39.085938 152.839844 39.285156 C 154.167969 40.160156 152.636719 41.75 151.570312 40.808594 C 151.34375 40.609375 151.203125 40.257812 150.957031 40.035156 C 150.839844 39.929688 150.652344 39.871094 150.554688 39.769531 C 150.488281 39.699219 150.578125 39.445312 150.457031 39.382812 C 149.847656 39.082031 150.171875 40.007812 150.457031 39.382812 C 149.84375 39.742188 150.171875 40.007812 150.457031 39.382812 C 149.792969 39.796875 149.03125 39.542969 148.269531 39.796875 C 146.238281 40.050781 144.210938 39.542969 142.179688 39.542969 C 141.925781 39.542969 141.671875 39.285156 141.671875 39.035156 C 141.417969 37.765625 140.40625 36.75 139.136719 36.75 C 137.363281 36.75 135.585938 37.511719 133.820312 37.328125 C 134.070312 37.210938 134.382812 37.199219 134.640625 37.285156 C 134.390625 37.363281 134.085938 37.335938 133.820312 37.328125 C 134.113281 37.058594 134.027344 36.601562 133.589844 36.503906 C 133.25 36.429688 133.1875 36.769531 132.917969 36.808594 C 132.453125 36.875 132.5625 36.523438 132.242188 36.25 C 131.890625 35.953125 131.363281 36.019531 130.9375 36.0625 C 131.070312 35.835938 131.273438 35.65625 131.519531 35.566406 C 131.003906 34.917969 129.808594 34.667969 129.035156 34.882812 C 128.222656 35.105469 127.714844 35.988281 126.785156 35.804688 C 127.054688 35.605469 127.324219 35.402344 127.550781 35.152344 C 126.984375 35.113281 126.425781 35.25 125.863281 35.210938 C 126.484375 34.277344 127.941406 34.886719 128.5625 33.957031 C 126.769531 33.316406 124.894531 34.320312 123.078125 33.882812 C 123.332031 34.65625 121.605469 34.339844 121.214844 34.457031 C 121.246094 34.535156 121.277344 34.609375 121.304688 34.6875 C 121.6875 34.441406 122.421875 34.195312 122.628906 34.785156 C 122.269531 34.933594 121.941406 35.15625 121.558594 35.238281 C 121.746094 35.617188 122.089844 35.902344 121.679688 36.222656 C 121.285156 36.527344 120.453125 36.15625 120.03125 36.082031 C 120.058594 36.417969 120.035156 36.761719 119.917969 37.078125 C 119.597656 36.492188 119.089844 35.988281 118.582031 35.988281 C 117.058594 35.988281 115.789062 35.988281 114.296875 35.5 C 113.953125 35.625 114 36.148438 113.597656 36.261719 C 114.296875 37.476562 112.53125 37.042969 112.007812 36.800781 C 111.410156 36.527344 109.988281 35.738281 109.886719 34.984375 C 110.191406 35.0625 111.027344 35.25 111.113281 34.761719 C 111.203125 34.289062 110.609375 34.523438 110.347656 34.378906 C 109.625 33.984375 110.414062 34.179688 110.5 33.980469 C 110.621094 33.714844 110.117188 33.328125 110.710938 33.34375 C 109.949219 32.492188 108.746094 32.972656 107.808594 32.566406 C 107.332031 32.359375 107.035156 31.851562 106.472656 31.886719 C 105.972656 31.917969 105.640625 32.398438 105.140625 32.449219 C 105.652344 33.296875 104.214844 33.640625 103.691406 33.199219 L 104.023438 33.175781 C 104.148438 33.222656 104.273438 33.289062 104.386719 33.355469 C 104.246094 33.347656 104.105469 33.351562 103.960938 33.328125 C 104.105469 33.34375 104.246094 33.347656 104.386719 33.355469 C 102.910156 32.980469 101.355469 33.183594 99.882812 32.773438 C 99.960938 32.828125 100.039062 32.882812 100.117188 32.933594 C 100.070312 32.546875 100.273438 32.179688 100.5625 31.929688 C 98.785156 31.675781 97.261719 32.4375 95.363281 32.738281 C 95.128906 32.628906 94.726562 32.039062 94.875 31.835938 C 94.066406 32.582031 93.339844 31.378906 92.515625 31.527344 C 91.773438 31.664062 92.402344 32.085938 92.863281 32.097656 C 91.730469 32.363281 90.558594 32.585938 89.488281 33.054688 C 88.695312 33.402344 87.75 34.203125 86.84375 33.765625 C 88.046875 32.265625 90.128906 32.265625 91.585938 31.144531 C 91.457031 31.027344 91.320312 30.921875 91.171875 30.832031 C 92.296875 30.335938 93.5 30.042969 94.589844 29.472656 C 94.871094 29.324219 95.394531 29.136719 95.410156 28.757812 C 95.425781 28.269531 94.644531 28.054688 94.300781 27.945312 C 94.777344 28.03125 95.246094 28.203125 95.734375 28.175781 C 93.722656 26.613281 90.90625 25.847656 88.46875 26.820312 C 88.578125 26.820312 88.6875 26.820312 88.796875 26.820312 C 88.339844 26.574219 89.128906 25.847656 88.414062 25.683594 C 87.871094 25.558594 87.519531 26.460938 86.933594 26.402344 C 87.085938 26.214844 87.222656 26.019531 87.351562 25.8125 C 86.964844 25.796875 86.058594 25.890625 85.867188 25.4375 C 85.5625 24.710938 86.765625 24.65625 87.183594 24.699219 C 86.667969 23.5 83.65625 24.480469 83.128906 25.332031 C 82.664062 26.085938 83.730469 25.992188 83.699219 26.574219 C 83.65625 27.410156 81.558594 26.914062 81.125 26.917969 C 81.960938 26.632812 81.046875 27.5625 80.75 27.6875 C 79.738281 28.121094 78.441406 27.8125 77.386719 27.75 C 77.519531 27.414062 77.847656 27.210938 78.199219 27.167969 C 77.289062 27.175781 76.375 27.230469 75.484375 27.433594 C 75.761719 27.265625 76.109375 27.320312 76.289062 27.597656 C 74.679688 28.886719 72.902344 28.378906 71.378906 28.632812 C 69.351562 28.886719 68.84375 30.917969 67.574219 31.933594 C 66.558594 33.199219 64.78125 31.933594 63.261719 32.1875 C 62.246094 32.4375 61.738281 33.707031 62.167969 34.421875 C 62.101562 34.066406 61.960938 33.730469 61.777344 33.417969 C 61.890625 33.761719 62.023438 34.09375 62.167969 34.421875 C 62.203125 34.265625 62.242188 34.117188 62.246094 33.960938 C 62.085938 34.746094 63.449219 34.542969 63.875 34.636719 C 64.230469 34.71875 64.652344 34.933594 64.238281 35.113281 C 64.128906 35.164062 63.972656 34.75 64.25 34.773438 C 64.464844 34.789062 64.550781 34.902344 64.496094 35.125 C 64.363281 35.71875 62.925781 35.511719 62.519531 35.441406 C 61.464844 35.265625 60.390625 34.378906 59.300781 34.878906 C 59.425781 35.050781 59.574219 35.066406 59.722656 34.910156 C 59.449219 34.839844 59.277344 34.980469 59.453125 35.226562 C 59.351562 35.226562 59.257812 35.210938 59.160156 35.1875 C 59.257812 35.191406 59.355469 35.207031 59.453125 35.226562 C 58.90625 35.226562 56.867188 35.101562 57.675781 35.992188 C 58.351562 36.730469 59.992188 36.304688 60.214844 37.511719 C 59.253906 37.410156 60.074219 37.019531 60.214844 37.511719 C 58.945312 37.007812 57.167969 37.257812 56.15625 35.992188 C 56.15625 35.738281 56.914062 34.976562 56.660156 34.46875 L 56.15625 34.214844 C 54.125 35.480469 54.886719 38.273438 55.390625 40.050781 C 56.660156 40.050781 58.4375 39.542969 59.199219 41.0625 C 59.199219 41.316406 59.199219 41.570312 59.246094 41.703125 C 59.367188 42.632812 59.835938 42.75 60.71875 42.585938 C 59.75 43.589844 58.660156 42.664062 58.121094 41.753906 C 57.539062 40.769531 56.921875 40.394531 55.8125 40.972656 C 56.289062 42.019531 56.464844 40.976562 55.8125 40.972656 C 56.152344 41.574219 56.40625 41.824219 56.152344 42.332031 C 55.136719 44.109375 52.855469 46.394531 50.570312 44.871094 C 50.570312 44.617188 50.316406 44.617188 50.316406 44.363281 C 50.316406 44.109375 50.570312 43.855469 50.570312 43.855469 C 52.601562 44.109375 54.628906 43.09375 55.136719 41.066406 C 55.136719 40.8125 54.886719 40.558594 54.886719 40.558594 C 54.378906 40.558594 54.125 40.558594 53.511719 40.371094 C 53.582031 40.402344 53.652344 40.433594 53.726562 40.453125 C 54.125 39.035156 53.871094 37.511719 53.109375 36.242188 C 52.855469 35.738281 53.363281 35.226562 53.363281 34.722656 C 53.363281 34.214844 52.855469 33.960938 52.601562 33.703125 C 50.316406 32.945312 49.554688 35.738281 47.824219 36.828125 C 47.804688 37.101562 48.101562 37.113281 48.285156 37.003906 C 48.246094 37.800781 48.039062 38.597656 48.570312 39.28125 C 48.949219 39.765625 49.613281 40.019531 49.386719 40.753906 C 49.675781 40.554688 50.03125 40.441406 50.386719 40.460938 C 50.3125 40.804688 50.3125 41.058594 50.3125 41.3125 L 49.804688 41.566406 "/></g></g></svg>