<svg xmlns="http://www.w3.org/2000/svg" xmlns:xlink="http://www.w3.org/1999/xlink" width="239" zoomAndPan="magnify" viewBox="0 0 179.25 162.75" height="217" preserveAspectRatio="xMidYMid meet" version="1.2"><defs><clipPath id="2c684f7b5f"><path d="M 11 9.699219 L 168.945312 9.699219 L 168.945312 153 L 11 153 Z M 11 9.699219 "/></clipPath></defs><g id="9307a8cf16"><g clip-rule="nonzero" clip-path="url(#2c684f7b5f)"><path style=" stroke:none;fill-rule:nonzero;fill:#b60f68;fill-opacity:1;" d="M 135.664062 152.699219 C 134.09375 152.699219 132.523438 151.828125 130.429688 149.558594 C 129.558594 148.6875 128.859375 147.8125 128.160156 146.941406 C 127.113281 145.371094 126.941406 143.453125 127.8125 141.707031 C 128.859375 139.613281 131.300781 138.566406 133.570312 139.089844 C 134.617188 139.4375 135.488281 139.265625 135.664062 139.265625 C 137.757812 138.21875 139.851562 138.742188 140.898438 140.3125 C 141.769531 141.707031 141.597656 143.453125 140.550781 145.546875 C 140.199219 146.070312 140.027344 146.941406 139.851562 147.640625 C 139.328125 149.90625 138.457031 152.699219 135.664062 152.699219 Z M 135.140625 133.507812 C 133.746094 133.507812 132.347656 133.15625 131.128906 132.460938 C 129.035156 131.414062 126.589844 131.0625 123.449219 130.890625 C 114.550781 130.539062 111.410156 127.75 110.714844 119.199219 C 110.714844 119.023438 110.363281 118.847656 109.492188 118.324219 C 108.445312 117.800781 106.351562 116.753906 106.699219 114.136719 C 104.953125 112.742188 104.429688 110.996094 104.429688 109.078125 L 100.417969 112.566406 C 99.71875 113.089844 99.195312 113.089844 98.671875 113.089844 C 98.148438 112.917969 97.625 112.566406 97.453125 112.042969 C 94.660156 105.238281 88.726562 102.621094 83.320312 100.878906 C 82.097656 100.527344 80.875 100.878906 79.65625 101.226562 C 79.132812 101.402344 78.609375 101.574219 77.910156 101.75 C 76.515625 102.097656 75.292969 102.273438 73.898438 102.449219 C 67.964844 103.496094 62.554688 104.542969 58.542969 109.253906 C 56.972656 111.171875 54.527344 112.21875 51.910156 112.21875 L 51.5625 112.21875 C 50.515625 112.21875 49.46875 112.21875 48.597656 112.21875 C 44.410156 112.21875 41.441406 112.917969 39.523438 116.929688 C 38.476562 118.847656 35.859375 118.847656 34.988281 118.847656 C 31.324219 118.847656 26.261719 117.453125 24.167969 115.882812 C 23.644531 115.535156 23.296875 114.660156 23.472656 113.964844 C 25.914062 103.84375 21.203125 96.515625 16.140625 88.839844 C 15.269531 87.617188 14.570312 86.394531 13.699219 85.175781 C 13 84.128906 12.828125 82.730469 13.351562 81.507812 C 13.699219 80.8125 14.046875 80.113281 14.746094 79.765625 C 14.570312 79.242188 14.222656 78.542969 13.699219 77.84375 C 13 76.796875 12.304688 75.75 11.953125 74.355469 C 9.859375 64.234375 13.699219 58.828125 25.566406 54.640625 C 26.613281 54.289062 27.484375 53.941406 28.53125 53.59375 C 33.941406 51.847656 39 50.277344 42.140625 45.390625 L 42.488281 44.695312 C 43.1875 43.648438 43.535156 43.296875 43.1875 42.078125 C 42.664062 40.332031 44.410156 38.761719 49.992188 34.746094 C 51.214844 33.875 52.433594 33.003906 52.957031 32.480469 C 53.832031 31.433594 59.589844 24.976562 68.3125 24.976562 C 69.882812 24.976562 71.28125 25.152344 72.851562 25.5 C 73.023438 23.058594 73.898438 20.789062 75.46875 19.042969 C 77.5625 16.601562 80.703125 15.207031 84.191406 15.03125 C 84.714844 15.03125 84.890625 14.855469 84.890625 14.855469 C 86.460938 13.285156 89.25 12.414062 91.867188 12.761719 C 93.4375 12.9375 94.835938 13.113281 96.230469 13.285156 C 98.148438 13.460938 100.242188 13.808594 102.335938 13.984375 C 103.90625 14.160156 105.128906 15.207031 105.652344 16.601562 C 106.175781 17.996094 106 19.566406 104.953125 20.789062 C 104.429688 21.3125 104.082031 22.011719 103.558594 22.707031 C 102.335938 24.800781 102.859375 27.59375 104.78125 29.164062 L 106.351562 30.386719 C 109.667969 33.003906 112.808594 35.621094 116.472656 37.363281 C 116.644531 37.539062 116.996094 37.539062 117.167969 37.714844 C 117.691406 38.0625 118.214844 38.238281 118.566406 38.238281 C 118.566406 38.238281 118.738281 38.238281 118.914062 38.0625 L 119.785156 37.191406 C 120.832031 35.097656 121.183594 32.652344 121.707031 30.035156 C 121.878906 29.511719 121.878906 28.816406 122.054688 28.292969 C 122.230469 26.894531 122.402344 25.5 122.578125 24.105469 C 123.101562 19.21875 123.800781 13.984375 127.8125 9.796875 C 128.511719 10.320312 129.035156 10.144531 129.558594 10.144531 C 130.082031 10.144531 130.429688 10.320312 130.777344 10.667969 L 131.824219 11.714844 C 132 11.890625 132.175781 12.238281 132.347656 12.589844 C 132.699219 13.984375 133.222656 15.378906 133.746094 16.777344 C 134.792969 19.21875 135.839844 21.835938 135.839844 24.976562 C 135.839844 24.976562 135.839844 24.976562 135.839844 25.152344 C 142.121094 27.246094 142.292969 32.304688 142.46875 36.316406 C 142.46875 38.410156 142.644531 40.332031 143.339844 41.726562 C 143.863281 42.773438 144.214844 43.996094 144.386719 44.867188 C 145.085938 47.3125 145.433594 48.359375 147.878906 48.707031 C 149.972656 48.882812 152.589844 51.148438 153.113281 53.242188 C 154.507812 58.476562 156.429688 61.792969 159.742188 64.234375 C 160.789062 64.933594 160.789062 65.980469 160.789062 66.851562 C 160.789062 67.203125 160.789062 67.898438 160.964844 68.074219 C 160.964844 68.074219 161.140625 68.25 161.140625 68.25 L 162.1875 69.296875 C 162.1875 69.296875 162.359375 69.46875 162.359375 69.644531 C 162.882812 70.515625 163.40625 71.214844 164.105469 72.085938 C 166.199219 74.878906 168.640625 77.84375 168.117188 82.03125 L 167.945312 83.253906 C 167.070312 92.152344 166.023438 101.402344 159.917969 109.425781 C 156.078125 114.488281 152.414062 119.894531 150.671875 126.351562 C 149.796875 129.667969 148.226562 130.367188 147.003906 130.367188 C 146.65625 130.367188 146.480469 130.367188 146.132812 130.191406 C 143.691406 129.320312 142.121094 130.015625 139.503906 131.9375 C 138.457031 132.984375 136.886719 133.507812 135.140625 133.507812 Z M 135.140625 133.507812 "/></g><path style=" stroke:none;fill-rule:nonzero;fill:#b60f68;fill-opacity:1;" d="M 132.347656 140.136719 C 130.777344 140.136719 129.382812 141.007812 128.683594 142.40625 C 127.988281 143.800781 128.160156 145.371094 129.035156 146.765625 C 129.558594 147.640625 130.253906 148.335938 131.128906 149.210938 C 133.046875 151.128906 134.441406 152 135.664062 152 C 137.582031 152 138.28125 150.082031 138.980469 147.640625 C 139.152344 146.765625 139.503906 145.894531 139.851562 145.371094 C 140.722656 143.625 140.898438 142.054688 140.199219 141.007812 C 139.503906 139.789062 137.757812 139.613281 136.1875 140.3125 C 135.839844 140.484375 135.140625 140.660156 133.394531 140.3125 C 133.046875 140.136719 132.699219 140.136719 132.347656 140.136719 Z M 104.953125 107.332031 L 105.128906 109.078125 C 105.128906 110.472656 105.476562 112.21875 107.050781 113.441406 L 107.398438 113.789062 L 107.398438 114.3125 C 107.050781 116.058594 108.269531 116.929688 109.667969 117.453125 C 110.539062 117.976562 111.238281 118.324219 111.410156 119.023438 C 112.109375 127.050781 114.902344 129.667969 123.449219 130.015625 C 126.765625 130.191406 129.382812 130.367188 131.652344 131.585938 C 134.269531 132.984375 137.410156 132.808594 139.675781 131.0625 C 142.292969 129.144531 144.214844 128.273438 147.003906 129.144531 C 147.179688 129.144531 147.355469 129.320312 147.527344 129.320312 C 149.101562 129.320312 149.972656 127.398438 150.320312 126.003906 C 152.066406 119.546875 155.90625 113.964844 159.742188 108.902344 C 165.675781 101.050781 166.546875 91.980469 167.59375 83.082031 L 167.769531 81.859375 C 168.117188 78.019531 166.023438 75.226562 163.929688 72.4375 C 163.234375 71.5625 162.710938 70.867188 162.1875 69.992188 C 162.1875 69.992188 162.1875 69.820312 162.011719 69.820312 L 160.964844 68.773438 C 160.441406 68.421875 160.441406 67.726562 160.265625 66.851562 C 160.265625 65.980469 160.09375 65.28125 159.570312 64.933594 C 156.078125 62.492188 153.984375 59 152.589844 53.417969 C 152.242188 51.671875 149.796875 49.753906 148.050781 49.40625 C 145.085938 49.054688 144.5625 47.484375 143.863281 44.867188 C 143.691406 43.820312 143.339844 42.773438 142.816406 41.902344 C 141.945312 40.332031 141.945312 38.238281 141.945312 36.144531 C 141.769531 32.128906 141.769531 27.59375 136.011719 25.847656 L 135.488281 25.675781 L 135.316406 24.800781 C 135.316406 22.011719 134.269531 19.394531 133.394531 16.949219 C 132.871094 15.554688 132.175781 14.160156 131.824219 12.761719 C 131.824219 12.589844 131.652344 12.414062 131.652344 12.414062 L 130.082031 11.191406 C 129.90625 11.019531 129.730469 11.019531 129.558594 11.019531 C 129.207031 11.019531 129.035156 11.191406 128.859375 11.367188 C 125.019531 15.378906 124.496094 20.265625 123.800781 25.152344 C 123.625 26.722656 123.449219 28.117188 123.101562 29.339844 C 122.925781 29.863281 122.925781 30.386719 122.753906 30.910156 C 122.230469 33.527344 121.878906 35.96875 120.832031 38.238281 L 119.785156 39.285156 C 119.4375 39.808594 119.089844 39.808594 118.914062 39.808594 C 118.390625 39.808594 117.691406 39.457031 116.996094 39.109375 C 116.820312 38.933594 116.472656 38.761719 116.296875 38.761719 C 112.457031 37.015625 109.316406 34.398438 106 31.78125 L 104.429688 30.558594 C 102.164062 28.640625 101.464844 25.5 103.035156 22.882812 C 103.382812 22.183594 103.90625 21.488281 104.429688 20.789062 C 105.128906 19.917969 105.476562 18.695312 104.953125 17.472656 C 104.429688 16.253906 103.558594 15.554688 102.335938 15.378906 C 100.070312 15.03125 98.148438 14.855469 96.230469 14.683594 C 94.835938 14.507812 93.265625 14.332031 91.867188 14.160156 C 89.425781 13.808594 86.984375 14.507812 85.585938 15.902344 L 85.414062 16.078125 C 85.238281 16.078125 84.890625 16.253906 84.367188 16.253906 C 81.050781 16.425781 78.085938 17.648438 76.164062 19.917969 C 74.769531 21.488281 73.898438 23.582031 73.722656 25.847656 L 73.722656 26.894531 L 72.675781 26.546875 C 71.28125 26.199219 69.882812 26.023438 68.488281 26.023438 C 60.113281 26.023438 54.527344 32.480469 53.832031 33.175781 C 53.132812 33.875 51.910156 34.574219 50.691406 35.621094 C 45.28125 39.457031 43.886719 40.679688 44.234375 41.902344 C 44.582031 43.472656 44.234375 43.996094 43.535156 45.21875 L 43.1875 45.914062 C 39.871094 51.148438 34.636719 52.71875 29.054688 54.464844 C 28.007812 54.8125 26.960938 55.164062 26.089844 55.511719 C 14.746094 59.351562 11.082031 64.410156 13 74.179688 C 13.175781 75.402344 13.875 76.449219 14.570312 77.320312 C 15.09375 78.195312 15.445312 78.71875 15.792969 79.414062 L 15.96875 79.9375 L 15.445312 80.289062 C 14.921875 80.636719 14.570312 81.160156 14.398438 81.683594 C 14.046875 82.558594 14.046875 83.605469 14.746094 84.476562 C 15.445312 85.699219 16.316406 86.746094 17.015625 87.964844 L 17.1875 88.140625 C 22.425781 95.992188 27.136719 103.496094 24.691406 113.964844 C 24.691406 114.3125 24.691406 114.660156 25.042969 114.835938 C 27.136719 116.230469 32.019531 117.628906 35.335938 117.628906 C 36.035156 117.628906 38.300781 117.628906 39 116.230469 C 41.269531 112.042969 44.582031 111.171875 48.945312 111.171875 C 49.816406 111.171875 50.863281 111.171875 51.910156 111.171875 L 52.261719 111.171875 C 54.527344 111.171875 56.796875 110.125 58.191406 108.378906 C 62.378906 103.320312 68.140625 102.273438 74.070312 101.226562 C 75.46875 101.050781 76.6875 100.703125 78.085938 100.527344 C 78.609375 100.355469 79.132812 100.179688 79.65625 100.003906 C 81.050781 99.65625 82.445312 99.308594 83.84375 99.65625 C 89.425781 101.402344 95.53125 104.191406 98.5 111.347656 C 98.671875 111.519531 98.847656 111.871094 99.023438 111.871094 C 99.371094 111.871094 99.546875 111.871094 99.71875 111.695312 Z M 104.953125 107.332031 "/></g></svg>