<svg xmlns="http://www.w3.org/2000/svg" xmlns:xlink="http://www.w3.org/1999/xlink" width="239" zoomAndPan="magnify" viewBox="0 0 179.25 162.75" height="217" preserveAspectRatio="xMidYMid meet" version="1.2"><defs><clipPath id="82cbd4d157"><path d="M 13.582031 24.539062 L 164.914062 24.539062 L 164.914062 137.949219 L 13.582031 137.949219 Z M 13.582031 24.539062 "/></clipPath></defs><g id="7d137c117f"><path style=" stroke:none;fill-rule:nonzero;fill:#b60f68;fill-opacity:1;" d="M 121.9375 107.109375 C 120.015625 108.785156 119.15625 107.136719 118.070312 107.105469 C 118.121094 106.746094 118 106.386719 117.425781 106.019531 C 117.316406 106.207031 117.292969 106.570312 116.945312 106.828125 C 116.964844 106.726562 116.832031 106.1875 116.351562 106.304688 L 116.351562 106.035156 L 116.054688 106.035156 C 116.402344 107.664062 114.058594 107.429688 113.800781 108.886719 C 114.851562 107.875 115.324219 109.558594 116.054688 108.902344 C 116.214844 109.613281 116.296875 110.21875 116.054688 111.109375 C 119.335938 111.6875 117.238281 110.363281 119.40625 109.4375 C 119.40625 109.59375 119.375 109.746094 119.761719 109.996094 C 119.671875 109.636719 120.71875 107.542969 121.121094 108.585938 C 121.941406 108.503906 123.347656 108.875 122.5625 107.457031 L 122.832031 107.457031 C 122.867188 107 122.839844 107.113281 121.9375 107.109375 "/><path style=" stroke:none;fill-rule:nonzero;fill:#b60f68;fill-opacity:1;" d="M 89.949219 71.558594 C 88.960938 71.976562 90.207031 71.492188 90.214844 72.445312 C 90.257812 72.34375 90.648438 72.253906 90.566406 71.847656 L 91.386719 71.847656 C 91.339844 71.625 91.558594 71.324219 92 70.976562 C 91.582031 70.609375 91.046875 70.800781 90.550781 71.253906 L 90.242188 70.675781 C 90.082031 70.769531 89.859375 71.117188 89.949219 71.558594 "/><path style=" stroke:none;fill-rule:nonzero;fill:#b60f68;fill-opacity:1;" d="M 91.113281 70.15625 C 91.855469 69.832031 90.511719 68.972656 90.214844 69.878906 L 90.785156 69.878906 L 90.785156 70.460938 L 91.113281 70.15625 "/><path style=" stroke:none;fill-rule:nonzero;fill:#b60f68;fill-opacity:1;" d="M 119.132812 34.007812 C 120.972656 35.378906 120.746094 32.929688 120.203125 32.355469 C 118.425781 31.375 118.257812 33.191406 119.132812 34.007812 "/><g clip-rule="nonzero" clip-path="url(#82cbd4d157)"><path style=" stroke:none;fill-rule:nonzero;fill:#b60f68;fill-opacity:1;" d="M 116.652344 50.257812 C 116.351562 50.246094 115.789062 50.371094 115.304688 49.984375 C 116.078125 49.863281 116.867188 49.378906 117.140625 50.5 Z M 66.789062 81.335938 C 66.835938 81.339844 66.804688 81.308594 66.894531 81.433594 Z M 66.433594 85.15625 C 66.332031 84.992188 66.308594 84.707031 66.003906 84.484375 C 66.132812 84.582031 66.542969 84.5625 66.433594 85.15625 Z M 62.15625 85.820312 L 61.992188 85.660156 L 62.164062 85.816406 Z M 164.902344 72.671875 C 164.21875 70.246094 161.597656 73.664062 160.070312 71.121094 C 156.675781 72.726562 156.269531 68.417969 155.6875 65.4375 C 155.617188 65.0625 155.109375 64.980469 154.925781 65.316406 C 153.128906 68.542969 149.414062 67.386719 151.523438 65.347656 C 153.726562 65.601562 153.351562 64.460938 153.476562 63.0625 C 151.296875 60.785156 150.324219 65.9375 148.378906 61.464844 C 150.292969 60.855469 146.824219 58.136719 148.964844 57.835938 C 148.851562 57.390625 148.515625 56.230469 148.65625 55.554688 C 147.757812 55.96875 147.496094 52.554688 146.386719 53.296875 C 144.125 48.199219 141.238281 42.90625 138.484375 39.175781 C 138.195312 38.785156 138.152344 38.261719 138.378906 37.832031 C 139.542969 35.640625 139.167969 33.226562 139.042969 31.363281 C 141.050781 29.1875 138.570312 27.695312 139.132812 26.9375 C 138.265625 26.738281 138.589844 26.464844 137.714844 27.222656 C 137.683594 26.429688 136.441406 26.5625 136.59375 25.597656 C 132.320312 26.238281 137.230469 23.433594 130.886719 25.050781 C 130.515625 25.144531 130.3125 25.519531 130.382812 25.894531 C 130.429688 26.164062 130.371094 26.460938 130.058594 26.695312 C 130.601562 27.207031 130.878906 27.808594 131.742188 28.109375 C 131.421875 28.3125 130.996094 28.917969 130.898438 29.527344 C 132.050781 29.675781 130.738281 30.816406 129.839844 29.808594 C 130.214844 29.566406 130.039062 29.066406 129.535156 28.628906 C 128.320312 29.953125 129.761719 31.605469 127.257812 31.179688 C 127.332031 32.304688 126.589844 32.839844 126.457031 33.941406 C 126.347656 33.835938 126.203125 33.71875 125.898438 33.382812 L 125.375 34.203125 C 125.25 33.363281 125.988281 32.144531 124.5 31.714844 L 124.171875 32.582031 L 124.484375 32.582031 L 124.484375 33.109375 L 124.226562 33.109375 L 124.226562 32.824219 C 123.628906 32.757812 123.917969 33.464844 124.464844 34.257812 C 124.292969 34.273438 123.539062 34.339844 123.691406 33.632812 C 123.253906 34.371094 120.980469 36.207031 122.222656 36.804688 C 121.964844 36.929688 121.675781 37.671875 121.09375 37.625 C 124.441406 42.207031 113.027344 40.039062 118.890625 37.640625 C 116.835938 36.085938 113.320312 35.304688 116.292969 39.027344 C 116.039062 39.332031 116.03125 40.238281 116.054688 40.746094 C 118.925781 40.53125 116.8125 42.871094 118.28125 43.816406 C 117.726562 44.097656 117.242188 43.894531 116.367188 44.085938 C 116.511719 43.957031 116.503906 43.449219 116.980469 43.558594 L 116.328125 42.929688 C 116.199219 43.195312 115.910156 43.269531 115.582031 43.210938 C 115.152344 43.128906 114.714844 43.304688 114.511719 43.691406 C 111.375 49.746094 113.433594 45.042969 115.21875 49.925781 C 114.726562 49.554688 112.390625 50.207031 111.59375 49.113281 C 111.0625 49.148438 110.191406 49.121094 109.59375 48.835938 C 109.140625 50.230469 109.613281 50.339844 111.035156 50.867188 C 112.605469 49.917969 112.453125 55.097656 108.773438 51.3125 L 108.484375 51.886719 C 108.285156 51.390625 107.171875 51.714844 107.40625 50.8125 C 105.308594 48.339844 107.972656 46.910156 104.039062 46.328125 L 104.328125 46.328125 L 104.328125 46.015625 L 103.753906 46.015625 L 103.753906 45.726562 C 103.179688 45.925781 102.183594 45.070312 102.953125 44.371094 C 102.804688 44.351562 102.601562 44.496094 102.371094 44.132812 C 102.933594 43.660156 104.101562 45.414062 104.328125 44.695312 C 105.222656 45.1875 108.445312 46.191406 108.78125 45.210938 C 110.375 47.277344 114.433594 43.558594 113.273438 41.253906 L 112.988281 41.253906 L 112.988281 40.664062 C 112.730469 41.152344 112.324219 40.800781 112.429688 40.128906 C 111.328125 40.007812 110.53125 39.714844 109.023438 38.96875 L 109.023438 39.230469 C 107.238281 37.558594 104.179688 37.773438 102.035156 37.910156 C 102.0625 37.910156 101.878906 37.019531 101.480469 37.609375 C 99.613281 35.015625 101.003906 38.078125 99.21875 36.496094 C 99.277344 38.007812 99.046875 37.164062 97.949219 37.070312 L 98.167969 36.179688 C 98.078125 36.3125 97.59375 36.222656 97.273438 36.246094 C 97.480469 36.117188 97.777344 35.5 97.269531 35.183594 C 97.359375 35.460938 98.257812 34.300781 97.523438 34.277344 C 97.613281 33.800781 97.09375 33.960938 96.394531 34.261719 C 96.507812 33.320312 95.128906 33.148438 94.679688 34.546875 C 94.820312 31.117188 93.378906 33.238281 93.214844 34.820312 C 92.898438 34.5 92.628906 33.851562 92.707031 33.148438 L 92.453125 33.148438 C 93.511719 32.265625 89.746094 32.972656 91.480469 33.722656 C 90.929688 34.1875 90.210938 33.070312 90.097656 34.5625 L 89.777344 34.5625 L 90.089844 34.875 L 89.554688 35.390625 L 89.265625 34.835938 C 88.628906 35.222656 89.480469 36.265625 88.109375 35.695312 L 88.109375 35.949219 C 87.285156 35.113281 86.425781 36.894531 86.984375 37.929688 C 86.753906 37.609375 86.078125 36.933594 85.875 37.9375 L 85.578125 37.359375 C 85.046875 37.710938 85.386719 38.351562 85.550781 39.042969 C 84.738281 37.195312 84.878906 40.691406 84.46875 38.507812 C 84.171875 38.617188 84.074219 39.175781 84.136719 39.648438 C 83.183594 39.214844 83.230469 42.914062 82.191406 41.296875 C 81.605469 41.652344 82.089844 42.550781 81.640625 43.234375 L 81.640625 41.871094 C 81.390625 42.410156 80.929688 41.941406 80.414062 42.527344 C 80.59375 42.566406 81.070312 42.410156 81.019531 43.015625 L 80.757812 42.734375 C 79.851562 43.097656 79.164062 42.875 80.734375 43.890625 C 80.4375 43.59375 78.847656 44.574219 80.160156 44.511719 C 80.183594 45.546875 78.246094 45.15625 77.605469 46.4375 C 77.988281 46.675781 77.84375 46.949219 77.433594 47.011719 C 77.28125 47.035156 77.210938 47.210938 77.308594 47.332031 C 77.488281 47.5625 77.703125 47.773438 77.90625 47.375 L 77.90625 47.847656 L 77.042969 47.847656 C 77.054688 47.992188 76.964844 48.171875 77.320312 48.429688 C 76.757812 48.847656 76.28125 48.894531 76.207031 50.09375 C 76.167969 50.042969 76.09375 50 76.035156 49.914062 C 75.949219 49.792969 75.761719 49.824219 75.695312 49.957031 C 75.625 50.09375 75.578125 50.257812 75.609375 50.4375 C 76.082031 50.257812 76.101562 51.363281 75.34375 51.25 C 75.34375 51.503906 75.464844 52.191406 74.769531 52.09375 L 74.769531 52.410156 C 75.417969 52.464844 74.921875 53.324219 74.363281 52.929688 C 74.089844 52.730469 73.726562 52.671875 73.441406 52.851562 C 73.265625 52.960938 73.050781 53.023438 72.78125 52.953125 C 72.84375 53.429688 72.445312 54.496094 71.652344 54.347656 L 71.652344 55.160156 C 71.386719 54.824219 71.292969 54.957031 70.816406 55.484375 C 70.457031 54.933594 70.460938 55.503906 69.664062 55.761719 L 69.664062 56.304688 C 69.566406 56.230469 69.484375 55.988281 69.0625 56.050781 C 69.425781 56.1875 69.539062 57.101562 68.828125 56.328125 C 68.675781 56.910156 67.105469 56.066406 67.933594 57.460938 C 65.640625 57.050781 67.167969 57.429688 65.429688 58.542969 L 65.429688 58.039062 C 65.277344 58.046875 65.125 57.972656 64.851562 58.316406 C 64.574219 57.707031 63.230469 58.398438 64.5625 58.921875 C 64.5625 59.511719 62.757812 59.023438 63.703125 60.28125 L 63.128906 60.011719 C 62.730469 60.902344 65.023438 61.804688 63.128906 61.117188 C 63.117188 61.539062 63.117188 62.144531 63.691406 62.570312 L 63.417969 62.828125 C 63.136719 62.226562 62.515625 63.007812 63.324219 63.410156 C 62.25 63.246094 63.371094 64.75 64.46875 64.085938 C 64.082031 64.472656 63.957031 64.5625 63.386719 65.132812 L 63.957031 65.683594 C 63.148438 65.558594 61.488281 66.0625 62.296875 67.445312 C 62.421875 66.984375 63.675781 65.9375 63.394531 67.382812 C 62.960938 67.347656 63.253906 67.539062 62.890625 68.175781 L 62.890625 67.90625 C 62.074219 68.632812 62.71875 70.125 63.96875 70.226562 L 63.378906 70.777344 C 63.546875 70.761719 63.996094 71.398438 64.253906 70.835938 L 64.253906 71.371094 C 64.851562 71.328125 65.585938 71.527344 66.261719 71.113281 L 66.261719 71.382812 C 70.320312 67.40625 68.941406 70.578125 70.472656 68.96875 C 70.625 67.023438 72.082031 65.527344 71.609375 67.039062 C 71.515625 67.335938 71.628906 67.667969 71.894531 67.832031 C 72.089844 67.957031 72.292969 68.117188 72.460938 68.230469 C 72.429688 68.292969 72.273438 68.375 71.929688 68.824219 L 71.9375 68.824219 L 71.9375 71.371094 L 72.226562 71.371094 L 72.226562 71.980469 C 73.210938 70.984375 71.941406 73.949219 72.769531 74.460938 C 72.480469 74.601562 72.136719 75.648438 73.050781 75.613281 C 73.980469 77.78125 71.796875 81.109375 75.960938 80.695312 C 76.011719 78.71875 75.5625 79.628906 77.117188 78.660156 L 76.835938 78.660156 C 77.539062 77.710938 78.304688 78.988281 79.363281 78.707031 C 79.238281 77.546875 80.113281 76.710938 80.492188 75.566406 L 80.222656 75.566406 C 80.410156 75.238281 80.347656 75.117188 80.789062 74.75 C 79.820312 74.015625 81.777344 72.769531 80.789062 71.644531 L 81.390625 71.34375 L 80.511719 71.066406 C 80.910156 70.710938 82.390625 71.480469 82.191406 69.953125 C 82.46875 69.988281 82.683594 69.792969 83.035156 70.257812 C 83.152344 69.953125 83.335938 69.617188 83.679688 69.363281 C 83.855469 69.230469 83.867188 68.984375 83.707031 68.839844 C 83.199219 68.390625 85.222656 68.082031 84.46875 66.507812 L 83.914062 66.777344 C 84.144531 66.183594 83.160156 65.921875 83.34375 65.097656 C 82.109375 65.964844 82.382812 64.203125 81.667969 63.453125 C 82.296875 63.640625 82.21875 62.253906 82.191406 61.753906 L 82.515625 61.753906 C 81.890625 61.417969 82.886719 60.53125 82.765625 59.722656 C 80.175781 59.503906 83.542969 58.898438 84.484375 58.355469 C 83.691406 57.914062 85.238281 57.699219 84.5 57.222656 C 84.859375 57.28125 85.128906 57.21875 85.308594 56.6875 C 85.445312 56.976562 85.746094 56.949219 86.183594 56.652344 C 86.410156 56.019531 87.035156 54.871094 87.820312 53.730469 C 87.992188 53.480469 88.023438 53.164062 87.929688 52.875 C 87.636719 52 88.058594 50.15625 89.019531 50.4375 C 88.867188 47.675781 89.207031 50.066406 90.121094 48.746094 C 91.871094 49.671875 92.925781 48.558594 93.214844 51.804688 C 91.582031 51.519531 89.894531 58 88.394531 56.910156 C 87.503906 58.933594 88.058594 59.542969 88.398438 61.546875 C 88.609375 63.636719 86.960938 63.140625 88.417969 64.851562 C 91.148438 64.410156 91.015625 68.773438 92.945312 66.011719 L 93.230469 66.585938 C 93.867188 65.453125 95.839844 65.976562 96.078125 64.597656 L 96.367188 65.175781 C 96.550781 64.792969 97.335938 64.722656 97.507812 64.042969 C 97.960938 64.546875 98.972656 64.402344 99.21875 63.445312 C 99.003906 64.578125 100.734375 63.328125 100.511719 63.917969 C 99.824219 66.203125 103.675781 64.339844 103.421875 65.933594 L 101.148438 65.933594 L 101.148438 66.21875 L 100.925781 66.21875 L 100.925781 65.902344 C 100.589844 65.839844 100.699219 67.183594 100.421875 67.011719 C 100.230469 66.894531 99.988281 66.941406 99.917969 67.152344 C 99.453125 68.550781 98.703125 67.519531 97.027344 67.886719 C 96.8125 67.109375 94.75 68.113281 93.597656 67.902344 L 93.597656 68.476562 C 93.105469 67.980469 91.667969 69.753906 93.0625 69.644531 L 93.0625 70.117188 C 92.15625 70.988281 93.359375 72.316406 94.214844 71.398438 C 94.148438 72.113281 93.964844 75.820312 93.3125 75.757812 C 89.71875 71.511719 89.289062 73.378906 88.238281 77.765625 L 88.246094 77.761719 C 88.085938 78.761719 88.582031 79.78125 88.53125 80.871094 C 89.273438 80.703125 89.140625 81.433594 90.066406 81.691406 C 89.199219 82.269531 88.367188 80.550781 87.996094 81.59375 L 88.269531 81.59375 C 88.15625 82.171875 86.921875 82.921875 87.203125 81.527344 C 86.542969 81.804688 86.355469 82.332031 85.777344 82.824219 C 86.890625 83.050781 85.433594 83.488281 85.742188 84.375 L 84.925781 84.375 L 84.925781 84.089844 C 82.125 85.265625 85.078125 80.804688 80.066406 83.527344 L 79.777344 83.21875 C 79.746094 83.703125 78.320312 83.964844 78.058594 84.664062 C 75.90625 83.898438 75.914062 87.671875 75.292969 85.527344 L 74.433594 85.527344 L 74.433594 84.375 C 72.117188 82.957031 71.914062 84.628906 70.699219 84.054688 L 70.699219 84.375 C 70.234375 84.351562 69.632812 84.496094 69.097656 84.136719 L 69.328125 84.136719 L 69.328125 83.871094 L 69.597656 83.871094 L 69.597656 83.230469 C 69.371094 83.28125 69.027344 83.054688 68.738281 83.519531 C 68.621094 83.210938 68.472656 82.839844 67.894531 82.964844 L 67.894531 82.675781 C 67.597656 82.710938 66.894531 82.75 67.636719 82.128906 C 67.753906 82.109375 66.394531 81.398438 67.449219 81.34375 C 67.34375 81.242188 67.179688 81.070312 66.835938 80.75 C 66.941406 80.679688 67.03125 80.449219 67.449219 80.507812 C 67.492188 80.527344 66.78125 79.863281 67.414062 79.949219 C 67.703125 79.40625 69.300781 77.605469 69.359375 77.386719 C 69.527344 78.410156 70.644531 76.28125 69.117188 76.503906 L 69.117188 76.214844 C 68.648438 76.414062 68.769531 75.5625 69.441406 75.6875 C 69.359375 75.566406 69.035156 75.503906 69.117188 75.070312 L 68.519531 75.070312 C 68.765625 75.738281 66.804688 75.058594 67.660156 76.183594 C 67.554688 76.117188 67.429688 75.746094 67.128906 76.183594 C 67.273438 74.5625 66.234375 77.136719 65.71875 75.644531 C 64.679688 75.617188 65.472656 78.160156 64.800781 78.78125 C 66.015625 79.507812 65.976562 82.183594 65.023438 83.011719 L 65.289062 83.011719 C 65.226562 83.382812 65.28125 83.675781 65.84375 83.851562 C 65.777344 83.957031 65.421875 84.070312 65.832031 84.375 L 64.734375 84.375 C 64.738281 85.113281 64.832031 85.253906 64.449219 85.992188 C 64.34375 85.863281 64.128906 85.402344 64.207031 84.949219 L 63.875 84.949219 C 63.988281 85.371094 63.433594 85.34375 63.9375 84.679688 C 63.617188 84.332031 62.429688 84.355469 61.886719 84.375 C 61.503906 84.878906 62.230469 85.613281 61.339844 85.832031 C 61.429688 84.453125 61.375 84.390625 59.925781 85.265625 L 59.925781 84.667969 C 59.605469 85.289062 58.019531 84.785156 58.15625 85.984375 C 58.628906 88.335938 56.167969 88.269531 57.394531 86.960938 L 57.113281 86.960938 C 57.640625 86.714844 57.96875 85.664062 56.808594 85.832031 L 56.808594 85.585938 C 56.492188 85.699219 56.722656 87.375 55.886719 87.535156 C 55.984375 87.894531 55.628906 88.222656 55.042969 88.105469 L 55.042969 88.726562 C 55.371094 88.675781 55.542969 88.839844 54.824219 89.214844 L 54.824219 88.679688 L 54.46875 88.679688 C 54.570312 89.402344 54.125 89.753906 55.003906 90.078125 C 54.917969 90.050781 54.402344 90.183594 54.507812 90.625 C 53.617188 90.742188 53.0625 90.449219 52.851562 89.765625 C 52.695312 89.777344 52.523438 89.691406 52.253906 90.0625 L 51.945312 89.730469 C 52.023438 89.964844 51.855469 90.207031 51.417969 90.335938 C 47.640625 89.589844 51.039062 93.425781 45.695312 93.382812 L 45.695312 93.730469 C 45.992188 93.71875 46.441406 93.828125 46.792969 94.242188 L 46.535156 94.242188 L 46.535156 94.53125 C 46.257812 94.222656 45.386719 94.214844 44.882812 94.242188 L 44.882812 93.957031 C 44.328125 94.050781 43.796875 93.734375 43.136719 93.367188 L 43.136719 93.671875 L 42.621094 93.402344 C 43.265625 93.011719 42.25 93.078125 42.929688 92.273438 C 39.542969 91.160156 43.359375 96.441406 40.378906 95.101562 L 40.648438 94.792969 C 40.203125 94.699219 39.640625 95.054688 39.15625 94.519531 L 39.15625 94.792969 L 38.652344 94.792969 L 38.652344 93.957031 C 38.308594 93.886719 37.785156 94.226562 38.335938 93.421875 C 37.664062 93.523438 37.515625 93.714844 36.660156 93.957031 C 36.726562 93.414062 36.105469 93.910156 35.492188 93.371094 C 35.410156 93.648438 34.792969 93.75 34.339844 93.6875 L 34.339844 94 L 35.160156 94 L 35.160156 94.546875 L 34.914062 94.546875 C 34.953125 94.953125 34.546875 94.625 34.023438 95.148438 C 34.457031 94.6875 34.976562 96.492188 34.957031 95.714844 L 35.515625 96 C 35.496094 95.207031 35.882812 96.449219 36.617188 96.542969 L 36.617188 96.832031 L 36.882812 96.832031 L 36.882812 97.402344 L 37.996094 97.402344 L 37.6875 97.691406 C 38.140625 97.585938 38.449219 97.953125 38.019531 98.53125 C 38.140625 98.5 38.730469 98.578125 38.605469 99.105469 C 38.582031 99.367188 38.425781 102.574219 40.015625 101.945312 C 39.984375 102.121094 40.167969 102.488281 39.699219 102.773438 L 39.984375 102.773438 C 39.621094 103.167969 39.746094 103.765625 39.445312 104.476562 L 39.730469 104.476562 C 39.667969 104.933594 40.183594 105.679688 40.015625 106.367188 C 39.71875 105.847656 39.472656 105.191406 39.203125 104.398438 C 38.1875 105.21875 39.425781 107.34375 38.03125 107.238281 C 37.175781 110.753906 34.703125 111.132812 32.1875 108.921875 C 29.332031 108.171875 23.402344 106.195312 23.835938 104.953125 C 23.5 105.058594 23.097656 105.546875 22.644531 104.933594 L 22.644531 105.234375 L 21.769531 105.234375 C 22.125 105.429688 22.023438 105.691406 21.558594 106.0625 C 21.660156 105.441406 20.824219 105.726562 20.402344 105.21875 L 20.117188 105.792969 C 19.925781 105.441406 18.886719 105.792969 19.523438 106.722656 L 19.8125 106.453125 C 19.839844 106.5625 19.714844 107.074219 19.238281 106.953125 L 19.238281 107.25 L 19.570312 107.25 C 19.707031 106.648438 20.511719 107.09375 19.492188 108.109375 C 20.519531 108.339844 18.707031 108.375 18.988281 109.234375 C 18.152344 115.074219 14.449219 115.660156 14.195312 118.257812 C 17.613281 118.667969 11.375 123.308594 14.480469 123.628906 C 14.886719 123.222656 15.824219 124.769531 16.449219 124.238281 L 16.449219 124.492188 C 17.355469 123.777344 20.109375 125.476562 19.207031 126.496094 L 19.796875 126.496094 C 19.738281 126.683594 19.476562 126.914062 19.523438 127.3125 L 18.917969 127.3125 C 19.234375 128.136719 19.796875 128.398438 20.402344 129.339844 C 22.898438 126.339844 28.234375 130.164062 29.996094 129.285156 C 32.121094 126.441406 30.707031 129.960938 36.613281 125.34375 C 34.5625 123.078125 38.0625 121 40 119.929688 L 39.738281 119.929688 L 39.738281 119.710938 C 42.652344 118.023438 46.800781 120.265625 46.59375 115.480469 C 45.96875 113.796875 48.980469 113.019531 50.511719 113.800781 L 50.511719 114.40625 C 50.746094 114.179688 51.128906 113.902344 51.65625 113.800781 L 51.65625 114.375 L 52.214844 114.375 L 52.214844 114.964844 L 52.523438 114.65625 C 55.046875 117.515625 54.59375 114.496094 55.949219 114.929688 L 55.949219 114.644531 L 56.476562 114.644531 L 56.476562 114.964844 C 57.476562 114.449219 60.09375 111.648438 60.972656 113.183594 C 61.128906 112.652344 61.75 113.242188 62.121094 113.480469 C 62.09375 113.140625 62.179688 112.804688 62.90625 112.886719 C 62.738281 113.027344 62.410156 113.363281 62.925781 113.722656 C 62.992188 117.980469 70.328125 124.628906 70.625 123.640625 C 72.265625 125.230469 78.804688 130.566406 75.417969 131.230469 C 74.289062 135.050781 76.515625 133.636719 77.761719 131.253906 C 79.988281 130.84375 78.71875 128.753906 77.882812 128.484375 C 77.296875 128.097656 77.703125 127.804688 78.351562 126.714844 L 78.058594 126.714844 C 78.707031 125.621094 79.535156 127.023438 80.828125 126.761719 C 80.84375 130.246094 86.433594 126.398438 76.050781 123.027344 C 79.3125 120.277344 72.160156 124.460938 71.222656 115.6875 C 68.765625 115.03125 67.71875 114.253906 69.234375 111.710938 C 69.054688 111.75 68.574219 111.683594 68.660156 111.160156 L 68.402344 111.160156 C 68.484375 111.101562 68.550781 110.835938 68.929688 110.898438 L 68.929688 110.34375 C 69.996094 110.867188 71.09375 109.007812 71.796875 110.371094 C 71.707031 109.300781 71.925781 110.152344 72.589844 109.554688 C 72.65625 110.1875 72.65625 110.453125 71.738281 110.914062 C 72.289062 111.371094 71.84375 112.265625 72.621094 112.941406 C 73.851562 109.929688 75.011719 111.886719 74.578125 114.050781 L 75.148438 114.050781 L 75.148438 114.359375 C 75.449219 114.296875 75.597656 114.472656 75.980469 114.863281 L 75.113281 114.863281 C 77.28125 117.574219 84.15625 120.390625 83.960938 121.679688 L 84.519531 121.679688 L 84.519531 121.964844 L 85.136719 121.964844 L 85.136719 121.945312 C 85.128906 121.816406 85.738281 122.832031 85.109375 122.742188 C 85.175781 124.144531 84.921875 125.222656 84.820312 126.460938 L 85.109375 126.460938 L 85.109375 126.714844 L 84.820312 126.714844 C 84.5625 127.789062 86.152344 127.046875 86.511719 128.398438 L 86.472656 128.398438 C 86.632812 128.734375 86.851562 129.460938 87.59375 129.285156 C 87.671875 129.636719 87.367188 130.078125 87.925781 130.441406 C 87.859375 130.328125 89.3125 129.636719 89.050781 130.65625 C 87.339844 130.386719 87.808594 132.5625 89.871094 131.847656 L 89.871094 132.128906 C 90.574219 131.78125 91.507812 131.535156 92.210938 132.414062 C 92.242188 131.484375 93.1875 132.71875 93.832031 132.941406 C 92.429688 134.265625 93.09375 132.109375 91.902344 132.898438 L 91.902344 132.640625 C 85.707031 133.058594 91.585938 134.070312 89.863281 135.785156 C 90.371094 136.757812 90.839844 138.503906 91.308594 136.082031 C 91.792969 137.097656 92.699219 139.371094 92.988281 136.679688 L 92.988281 137.21875 L 93.273438 137.21875 L 93.273438 137.773438 L 94.773438 137.773438 C 94.765625 137.183594 93.683594 137.039062 93.890625 136.027344 C 91.273438 133.503906 95.300781 136.777344 95.324219 134.308594 C 93.386719 135.707031 94.308594 131.992188 96.183594 134.117188 C 96.746094 130.03125 91.421875 132.113281 93.320312 129.8125 C 91.644531 129.242188 94.457031 128.1875 94.152344 129.859375 C 94.433594 129.957031 94.589844 129.667969 94.789062 129.242188 C 93.410156 129.089844 91 124.945312 93.273438 125.476562 C 93.488281 126.601562 94.125 127.441406 95.324219 127.882812 C 95.46875 127.242188 94.234375 127.484375 94.464844 126.492188 C 94.820312 126.871094 95.386719 127.488281 96.183594 127.613281 L 96.183594 127.273438 C 95.714844 127.378906 95.808594 126.832031 95.355469 126.460938 L 95.835938 126.460938 C 95.648438 127.253906 96.359375 127.128906 97.042969 126.648438 C 97.164062 126.566406 97.125 126.375 96.980469 126.339844 C 96.339844 126.1875 95.460938 125.847656 95.324219 125.042969 C 97.589844 125.546875 96.3125 123.792969 97.261719 124.484375 C 97.335938 124.847656 98.863281 124.785156 98.207031 124.203125 C 99.914062 123.9375 101.15625 125.652344 102.332031 124.828125 C 102.484375 125.152344 102.144531 125.339844 101.816406 125.597656 C 101.648438 125.726562 101.742188 126.007812 101.957031 126.003906 C 103.175781 125.988281 104.160156 124.164062 105.632812 123.460938 C 106.429688 123.089844 107.796875 123.925781 107.800781 122.738281 C 107.804688 122.601562 107.707031 122.476562 107.570312 122.445312 C 106.480469 122.179688 105.050781 121.539062 105.113281 120.15625 C 105.117188 120.0625 105.058594 119.980469 104.964844 119.96875 C 104.753906 119.945312 104.488281 119.820312 104.558594 119.417969 C 104.34375 119.46875 103.976562 119.257812 103.714844 119.667969 C 103.765625 119.472656 103.480469 118.476562 104.269531 118.621094 C 104.265625 118.449219 104.191406 118.308594 104.566406 118.023438 C 104.589844 118.167969 103.917969 117.132812 104.558594 117.207031 L 104.558594 116.078125 C 107.261719 116.628906 104.828125 113.632812 106.386719 112.59375 C 104.957031 113.089844 106.714844 109.941406 106.617188 112.082031 C 106.785156 112.109375 107.277344 112.023438 107.214844 111.507812 C 107.886719 111.882812 108.003906 108.796875 107.546875 110.179688 C 107.351562 109.882812 106.246094 108.332031 107.363281 108.296875 L 107.363281 108.617188 C 108.695312 107.8125 110.144531 108.152344 107.960938 106.652344 L 108.183594 106.652344 L 108.183594 106.6875 C 110.777344 106.753906 107.585938 106.234375 111.546875 104.953125 L 111.546875 105.199219 L 111.894531 105.199219 L 111.894531 104.527344 C 111.894531 104.359375 112.121094 104.304688 112.195312 104.457031 C 112.347656 104.761719 112.519531 105.121094 112.675781 105.460938 C 110.691406 106.472656 114.160156 107.226562 115.230469 105.8125 L 115.496094 106.675781 C 115.628906 105.953125 117.597656 104.871094 118.023438 105.792969 L 118.339844 105.792969 L 118.339844 105.507812 C 118.914062 105.59375 118.585938 104.472656 119.402344 104.390625 L 119.402344 104.953125 C 123.910156 102.109375 121.804688 104.074219 124.226562 101.3125 C 124.761719 101.914062 124.726562 101.074219 125.578125 100.777344 C 125.359375 102.359375 126.878906 99.710938 127.320312 100.800781 C 127.324219 101.90625 125.074219 101.503906 126.4375 102.667969 C 123.316406 102.828125 124.710938 103.328125 126.617188 104.335938 C 126.464844 104.332031 126.433594 104.34375 126.152344 104.609375 L 125.878906 104.292969 C 125.695312 104.703125 126.273438 105.050781 125.902344 105.449219 C 124.953125 104.382812 125.386719 105.296875 124.722656 106.058594 C 124.882812 106.128906 125.140625 106.425781 125.042969 106.855469 C 122.179688 108.382812 126.648438 108.246094 126.457031 109.140625 C 128.625 108.523438 130.050781 111.046875 132.363281 111.699219 C 132.898438 112.039062 134.640625 111.351562 134.601562 112.519531 C 135.554688 112.226562 136.511719 114.101562 137.082031 115 C 137.003906 114.714844 136.050781 116.164062 136.878906 116.152344 L 136.878906 115.867188 C 138.210938 116.207031 140.328125 114.699219 140.195312 116.152344 C 143.832031 115.65625 140.183594 120.019531 144.125 118.417969 C 144.167969 118.503906 144.46875 118.597656 144.402344 118.980469 C 152.894531 124.523438 151.660156 112.878906 154.25 117.789062 L 153.886719 117.789062 C 156 119.570312 151.292969 119.152344 156.566406 119.808594 L 156.238281 119.476562 L 156.53125 119.242188 C 154.320312 117.8125 157.585938 118.121094 155.953125 115.867188 C 156.527344 115.203125 155.902344 114.1875 156.398438 113.5 C 156.609375 113.207031 156.488281 112.796875 156.140625 112.710938 C 153.859375 112.136719 154.566406 111.332031 152.328125 110.246094 L 152.339844 110.21875 C 146.585938 108.175781 149.773438 105.71875 146.085938 104.023438 C 145.390625 105.6875 144.726562 102.480469 145.875 101.527344 C 145.28125 101.46875 145.6875 98.53125 146.378906 99.628906 C 146.800781 99.109375 147.441406 98.773438 147.800781 97.957031 L 148.042969 98.242188 C 149.363281 96.339844 145.765625 96.859375 146.964844 96.019531 C 147.253906 95.816406 147.273438 95.398438 146.988281 95.1875 C 146.417969 94.761719 145.6875 94.332031 145.144531 93.832031 C 144.894531 93.601562 144.527344 93.578125 144.238281 93.746094 C 142.445312 94.777344 142.753906 91.550781 141.355469 92.796875 C 141.277344 92.171875 141.34375 91.175781 141.945312 90.582031 C 140.3125 90.734375 141.015625 87.484375 141.085938 86.671875 L 140.839844 86.671875 C 141.648438 84.984375 141.925781 86.753906 143.015625 87.320312 C 143.976562 86.78125 143.421875 85.175781 142.492188 84.726562 C 142.734375 84.59375 143.105469 84.414062 143.589844 84.480469 C 143.503906 81.386719 143.632812 83.816406 144.671875 82.101562 C 145.734375 81.320312 145.351562 79.796875 145.957031 80.402344 C 147.085938 81.917969 147.339844 78.433594 148.511719 79.285156 C 148.683594 79.410156 148.914062 79.375 149.035156 79.199219 C 149.445312 78.589844 151.144531 79.253906 152.292969 79.71875 C 152.617188 79.851562 152.957031 79.609375 152.96875 79.257812 C 153.019531 77.945312 156.003906 80.707031 155.691406 78.308594 L 155.9375 78.308594 C 155.925781 78.179688 156.003906 78.015625 155.71875 77.753906 L 156.8125 77.753906 C 156.117188 76.792969 157.117188 77.050781 158.214844 77.175781 L 158.214844 76.605469 L 158.738281 76.605469 C 158.335938 74.230469 160.765625 76.65625 162.417969 75.804688 C 161.992188 74.1875 165.15625 74.566406 164.902344 72.671875 "/></g><path style=" stroke:none;fill-rule:nonzero;fill:#b60f68;fill-opacity:1;" d="M 44.894531 124.542969 C 44.566406 124.382812 44.769531 124.070312 44.304688 123.667969 C 44.28125 123.746094 43.9375 123.871094 43.996094 124.25 L 42.867188 124.25 L 42.867188 124.582031 C 44.625 124.394531 43.832031 126.449219 45.507812 124.535156 C 45.40625 124.539062 45.222656 124.535156 44.894531 124.542969 "/><path style=" stroke:none;fill-rule:nonzero;fill:#b60f68;fill-opacity:1;" d="M 47.164062 123.96875 C 46.265625 123.28125 46.480469 124.382812 47.75 124.582031 L 47.75 123.964844 C 47.648438 123.964844 47.488281 123.960938 47.164062 123.96875 "/><path style=" stroke:none;fill-rule:nonzero;fill:#b60f68;fill-opacity:1;" d="M 39.75 125.378906 L 39.75 125.667969 L 39.179688 125.667969 L 39.179688 126.300781 C 39.339844 126.261719 39.660156 125.933594 40.0625 126 C 40.046875 125.792969 40.007812 125.699219 40.40625 125.378906 L 39.75 125.378906 "/><path style=" stroke:none;fill-rule:nonzero;fill:#b60f68;fill-opacity:1;" d="M 30.371094 39.019531 C 30.664062 39.273438 31.042969 40.046875 31.78125 39.886719 C 31.613281 40.683594 32.050781 41.980469 33.195312 41.875 C 33.070312 42.683594 33.539062 42.390625 34.097656 43.03125 C 34.109375 42.859375 34.003906 42.726562 34.339844 42.460938 L 34.339844 42.714844 C 34.878906 42.609375 36.769531 42.160156 37.171875 43.015625 C 37.597656 42.671875 39.570312 42.105469 39.445312 43.035156 C 39.726562 42.574219 40.683594 42.765625 40.867188 41.890625 C 41.976562 42.914062 43.089844 40.972656 42.605469 39.285156 C 41.84375 39.640625 41.925781 38.417969 42.605469 39.058594 C 41.898438 37.402344 42.808594 38.242188 42.894531 37.265625 C 42.058594 37.914062 42 37.402344 42.292969 36.191406 L 42.292969 36.441406 L 41.71875 36.15625 C 41.914062 36.609375 40.582031 37.671875 40.621094 36.441406 C 40.226562 36.550781 39.875 37.023438 39.210938 37.03125 C 39.28125 36.566406 39.761719 36.261719 39.15625 35.851562 C 38.191406 39.308594 38.878906 34.4375 38.054688 35.601562 L 37.722656 35.277344 C 36.445312 38.109375 37.289062 33.027344 36.0625 35.796875 C 35.660156 35.917969 35.328125 35.160156 34.671875 36.402344 L 34.671875 36.171875 C 34.011719 36.480469 34.941406 35.011719 34.671875 34.511719 C 34.921875 34.589844 35.375 34.480469 35.53125 33.894531 C 34.730469 34.316406 36.472656 31.703125 34.308594 31.925781 C 34.441406 32.023438 34.746094 32.378906 34.898438 32.785156 L 34.625 32.785156 C 34.867188 33.574219 34.101562 34.519531 34.097656 33.042969 L 33.796875 33.3125 L 33.796875 32.234375 L 33.75 32.234375 C 33.839844 32.394531 33.59375 32.714844 33.195312 32.183594 L 33.195312 33.058594 C 32.734375 32.847656 32.292969 32.515625 33.179688 33.359375 C 32.484375 33.6875 32.59375 33.769531 32.046875 32.753906 L 32.046875 33.34375 L 31.828125 33.34375 L 31.828125 33.042969 C 30.535156 33.660156 36.8125 35.644531 32.582031 35.039062 C 32.785156 35.183594 33.0625 35.519531 33.46875 35.90625 C 33.191406 36.898438 30.523438 33.875 30.367188 35.660156 C 30.722656 35.765625 31.859375 35.300781 31.78125 36.214844 C 32.398438 36.175781 31.796875 36.902344 31.78125 37.667969 L 32.050781 37.378906 C 32.121094 37.828125 30.519531 38.753906 30.074219 38.144531 C 29.953125 38.363281 29.507812 39.105469 30.371094 39.019531 "/><path style=" stroke:none;fill-rule:nonzero;fill:#b60f68;fill-opacity:1;" d="M 30.382812 78.558594 C 30.59375 78.996094 31.023438 78.574219 31.460938 79.082031 C 30.914062 79.253906 30.644531 78.816406 29.917969 78.777344 Z M 28.382812 79.929688 C 26.929688 81.421875 29.101562 79.855469 28.375 81.382812 L 28.875 81.382812 C 28.160156 81.679688 28.476562 81.683594 29.109375 81.671875 C 28.5625 81.757812 28.214844 82.179688 29.234375 81.683594 L 29.234375 82.242188 C 29.851562 81.464844 30.53125 82.742188 31.226562 81.949219 C 31.480469 82.242188 31.867188 82.328125 32.621094 81.703125 L 32.621094 81.941406 C 39.683594 81.652344 35.558594 79.269531 39.675781 75.773438 L 39.675781 76.316406 L 39.988281 76.316406 C 39.996094 74.90625 39.367188 76.027344 39.226562 75.363281 C 40.113281 75.015625 39.5 74.507812 39.414062 73.425781 L 38.574219 73.425781 C 38.640625 72.757812 38.785156 73.023438 37.722656 72.242188 L 37.722656 72.585938 C 35.910156 72.171875 35.652344 72.753906 34.03125 73.417969 C 34.214844 73.558594 34.589844 74.058594 35.132812 74.046875 C 34.722656 73.972656 33.898438 75.296875 33.683594 75.023438 C 33.128906 74.191406 30.832031 72.804688 31.511719 74.933594 C 31.386719 75.316406 29.691406 76.46875 30.9375 76.851562 L 30.9375 77.441406 C 33.296875 76.398438 30.699219 78.546875 29.445312 78.507812 L 29.753906 78.777344 L 29.484375 78.777344 C 29.375 79.332031 26.625 79.285156 29.203125 79.925781 C 29 79.925781 28.761719 79.921875 28.382812 79.929688 "/><path style=" stroke:none;fill-rule:nonzero;fill:#b60f68;fill-opacity:1;" d="M 61.238281 117.894531 C 59.121094 117.152344 58.367188 120.570312 60.214844 121.925781 C 60.300781 120.785156 61.769531 119.351562 61.238281 117.894531 "/><path style=" stroke:none;fill-rule:nonzero;fill:#b60f68;fill-opacity:1;" d="M 60.777344 123.261719 L 60.550781 123.035156 L 60.8125 123.035156 C 60.757812 122.8125 60.113281 122.640625 60.214844 122.09375 C 60.089844 122.175781 60.027344 122.503906 59.59375 122.417969 L 59.59375 122.683594 C 59.128906 122.535156 57.875 123.507812 57.335938 122.957031 C 57.171875 123.300781 56.679688 125.917969 58.144531 125.5625 C 57.480469 125.738281 57.933594 126.992188 57.015625 126.925781 C 57.5 127.433594 56.757812 129.238281 58.511719 128.960938 C 58.410156 128.578125 58.640625 127.808594 59.347656 128.40625 C 60.785156 129.25 60.066406 125.191406 61.074219 124.40625 L 60.800781 124.40625 C 60.867188 124.191406 61.238281 123.746094 60.777344 123.261719 "/><path style=" stroke:none;fill-rule:nonzero;fill:#b60f68;fill-opacity:1;" d="M 73.535156 132.59375 C 68.753906 134 69.496094 131.519531 67.875 132.574219 C 67.316406 131.085938 66.289062 133.75 67.066406 133.808594 C 70.199219 135.011719 70.5 136.269531 73.285156 137.175781 C 72.941406 136.703125 74.464844 135.898438 73.609375 135.699219 L 73.894531 135.4375 C 72.832031 135.191406 74.6875 133.335938 74.699219 132.285156 C 74.457031 132.429688 74.046875 132.671875 73.535156 132.59375 "/><path style=" stroke:none;fill-rule:nonzero;fill:#b60f68;fill-opacity:1;" d="M 40.304688 79.714844 L 40.304688 80.3125 C 40.726562 80.394531 41.910156 79.890625 40.304688 79.714844 "/><path style=" stroke:none;fill-rule:nonzero;fill:#b60f68;fill-opacity:1;" d="M 43.597656 89.660156 L 44.195312 89.660156 L 44.195312 89.328125 L 43.253906 89.328125 L 43.597656 89.660156 "/><path style=" stroke:none;fill-rule:nonzero;fill:#b60f68;fill-opacity:1;" d="M 49.164062 63.566406 C 49.03125 63.644531 48.953125 63.953125 48.492188 63.882812 L 49.164062 64.519531 L 49.164062 63.566406 "/><path style=" stroke:none;fill-rule:nonzero;fill:#b60f68;fill-opacity:1;" d="M 52.785156 61.921875 C 52.765625 64.15625 54.015625 58.042969 53.074219 61.328125 L 52.5 61.328125 C 52.507812 61.480469 52.425781 61.648438 52.785156 61.921875 "/><path style=" stroke:none;fill-rule:nonzero;fill:#b60f68;fill-opacity:1;" d="M 42.292969 64.679688 C 42.203125 64.582031 41.992188 64.535156 42.050781 64.121094 C 41.714844 64.453125 41.355469 65.179688 41.410156 65.949219 C 41.476562 65.675781 42.296875 64.425781 42.292969 65.671875 C 42.644531 65.550781 42.453125 64.675781 43.179688 64.753906 C 43.054688 64.425781 43.5 64.390625 43.449219 63.851562 C 43.332031 64.167969 42.761719 64.191406 42.292969 64.15625 L 42.292969 64.679688 "/><path style=" stroke:none;fill-rule:nonzero;fill:#b60f68;fill-opacity:1;" d="M 42.050781 77.496094 C 42.351562 76.589844 40.664062 77.074219 41.429688 77.777344 C 41.460938 77.761719 41.765625 77.625 42.050781 77.496094 "/><path style=" stroke:none;fill-rule:nonzero;fill:#b60f68;fill-opacity:1;" d="M 41.699219 66.765625 L 41.699219 67.390625 L 42.246094 67.097656 C 41.765625 68.671875 42.832031 67.820312 42.894531 66.433594 C 42.800781 66.527344 42.652344 66.71875 42.316406 66.992188 L 42.316406 66.453125 L 41.699219 66.765625 "/><path style=" stroke:none;fill-rule:nonzero;fill:#b60f68;fill-opacity:1;" d="M 42.214844 84.992188 L 42.074219 84.992188 L 42.074219 84.976562 L 42.214844 84.976562 Z M 43.324219 67.238281 L 43.332031 67.5 L 43.078125 67.5 L 43.078125 67.546875 C 44.105469 67.609375 42.699219 68.792969 41.890625 69.773438 C 41.933594 69.800781 41.902344 69.78125 41.746094 69.5625 C 41.03125 69.582031 42.148438 69.609375 41.382812 70.203125 L 41.699219 70.203125 L 41.699219 70.449219 L 41.746094 70.449219 L 41.746094 70.203125 L 42.050781 70.203125 L 42.050781 69.929688 L 42.511719 70.390625 C 42.691406 69.949219 42.886719 69.667969 43.578125 69.53125 C 43.332031 69.746094 43.183594 69.945312 42.71875 70.375 L 43.054688 70.375 L 43.054688 70.617188 C 42.375 70.445312 41.769531 71.195312 41.910156 72.085938 C 42.972656 70.71875 43.234375 71.382812 42.484375 72.34375 C 42.601562 72.347656 43.535156 72.28125 43.613281 72.871094 L 43.324219 72.871094 C 43.347656 73.21875 42.828125 73.960938 42.195312 74 C 42.234375 74.191406 42.148438 74.640625 41.621094 74.550781 L 41.621094 74.859375 L 41.335938 74.859375 L 41.335938 76.03125 L 41.667969 76.03125 C 41.566406 74.835938 42 75.632812 42.527344 76.351562 C 42.332031 75.976562 42.941406 74.871094 43.054688 76.046875 L 43.613281 75.757812 L 43.613281 76.03125 L 43.945312 76.03125 C 43.847656 75.15625 44.601562 76.570312 45.027344 75.777344 C 45.03125 75.890625 44.898438 76.273438 44.472656 76.179688 L 44.472656 76.410156 C 43.910156 75.613281 42.902344 78.152344 44.171875 78.191406 C 43.144531 79.132812 44.445312 77.832031 44.757812 78.984375 L 44.207031 78.984375 L 44.207031 79.273438 L 43.917969 79.273438 C 44.109375 80.292969 43.398438 79.441406 43.34375 80.449219 L 43.628906 80.449219 L 43.628906 81.003906 L 43.890625 81.003906 C 43.921875 80.980469 43.261719 81.570312 43.390625 80.925781 C 43.285156 81.128906 42.84375 81.398438 42.914062 80.726562 L 42.359375 80.726562 L 42.359375 80.453125 C 41.910156 80.636719 38.167969 81.492188 40.652344 81.644531 C 41.210938 80.714844 41.300781 82.234375 40.601562 82.429688 C 41.234375 83.035156 40.289062 82.816406 39.773438 83.5625 L 39.488281 83.257812 C 38.761719 84.121094 38.082031 82.53125 37.441406 84.171875 L 38.335938 84.171875 L 38.335938 84.398438 L 38.050781 84.398438 C 37.9375 85.378906 39.917969 83.628906 39.464844 85.300781 L 40.296875 85.300781 C 39.585938 86.4375 42.019531 85.972656 42.738281 85.816406 C 42.101562 86.460938 40.226562 87.660156 39.414062 86.347656 L 38.492188 86.347656 C 38.933594 86.609375 38.800781 87.035156 37.953125 86.613281 C 38.183594 87.425781 35.488281 88.195312 34.859375 88.363281 L 35.394531 88.363281 L 35.394531 88.9375 L 36.011719 88.9375 L 36.011719 88.648438 L 36.253906 88.648438 L 36.253906 88.96875 C 37.304688 87.632812 37.996094 89.191406 39.121094 89.214844 C 39.253906 88.144531 41.179688 87.695312 41.644531 89.222656 C 42.351562 88.863281 42.734375 89.039062 43.675781 89.222656 C 43.746094 88.027344 44.246094 89.40625 45.042969 89.222656 C 45.363281 90.292969 51.488281 89.679688 49.277344 88.671875 C 48.925781 88.992188 47.636719 88.054688 48.148438 87.789062 C 48.425781 88.1875 49.542969 87.636719 48.816406 87.457031 C 48.917969 87.199219 49.523438 87.25 49.929688 87.253906 L 49.929688 86.945312 C 52.089844 86.265625 52.128906 83.808594 48.515625 83.898438 C 49.417969 82.308594 50.035156 82.757812 48.226562 81.003906 C 48.296875 81.019531 48.402344 80.992188 48.523438 80.996094 C 48.8125 80.996094 49.039062 80.734375 49.007812 80.449219 C 48.769531 78.289062 47.90625 76.917969 47.628906 74.160156 L 47.605469 74.210938 C 47.699219 73.296875 43.703125 72.488281 45.808594 72.898438 C 46.324219 72.996094 46.378906 72.632812 47.089844 72.296875 C 45.65625 72.003906 46.363281 71.734375 47.917969 71.785156 C 47.691406 71.257812 49.480469 71.128906 48.484375 70.351562 C 48.574219 70.300781 48.667969 70.027344 49.046875 70.089844 C 50.789062 68.546875 47.394531 68.039062 45.664062 68.625 L 45.664062 68.101562 L 45.910156 68.101562 L 45.910156 68.054688 C 45.496094 68.113281 45.664062 67.648438 46.488281 67.546875 C 46.152344 66.929688 50.464844 65.984375 47.917969 65.511719 L 47.917969 65.226562 C 47.699219 65.421875 46.667969 65.730469 46.773438 64.902344 L 46.464844 65.230469 L 46.261719 64.984375 C 46.660156 65.039062 46.074219 64.601562 45.617188 64.667969 C 45.675781 64.878906 45.515625 65.183594 45.300781 65.558594 L 45.585938 65.558594 C 45.507812 66.144531 44.359375 65.128906 45 65.816406 C 44.601562 65.925781 44.449219 65.902344 44.742188 66.898438 C 44.5625 66.863281 44.757812 66.625 44.230469 66.65625 C 44.347656 66.058594 43.265625 66.308594 43.324219 67.238281 "/><path style=" stroke:none;fill-rule:nonzero;fill:#b60f68;fill-opacity:1;" d="M 66.570312 74.378906 C 64.375 76.445312 68.597656 73.328125 69.710938 75.011719 C 70.238281 74.285156 69.96875 73.914062 70.210938 73.304688 C 70.324219 73.015625 70.03125 72.738281 69.75 72.867188 C 68.699219 73.34375 68.023438 74.640625 66.570312 74.378906 "/><path style=" stroke:none;fill-rule:nonzero;fill:#b60f68;fill-opacity:1;" d="M 69.425781 80.925781 L 69.425781 79.769531 C 69.238281 79.78125 69.128906 79.835938 68.828125 79.453125 L 68.558594 79.757812 L 68.25 79.433594 L 68.25 79.769531 L 67.945312 79.769531 L 67.945312 80.660156 L 68.539062 80.660156 L 68.539062 80.925781 L 69.425781 80.925781 "/><path style=" stroke:none;fill-rule:nonzero;fill:#b60f68;fill-opacity:1;" d="M 70.113281 79.1875 C 69.945312 79.316406 69.546875 79.679688 70.09375 80.0625 C 69.351562 80.535156 70.226562 81.078125 70.964844 80.90625 L 70.964844 81.164062 C 70.382812 81.097656 71.152344 81.554688 71.617188 81.480469 C 70.625 80.949219 72.828125 80.808594 71.863281 80.0625 C 73.410156 78.851562 71.949219 79.046875 72.75 78.335938 L 72.460938 78.335938 L 72.746094 78.050781 C 72.359375 78.125 71.917969 77.8125 71.507812 78.382812 C 71.734375 78.355469 72.609375 78.835938 71.25 78.894531 C 70.964844 80.117188 71.078125 78.746094 70.679688 78.605469 C 70.714844 78.789062 70.640625 79.257812 70.113281 79.1875 "/><path style=" stroke:none;fill-rule:nonzero;fill:#b60f68;fill-opacity:1;" d="M 69.53125 81.722656 C 69.183594 82.429688 71.777344 82.953125 70.152344 82.007812 L 70.152344 81.722656 L 69.53125 81.722656 "/><path style=" stroke:none;fill-rule:nonzero;fill:#b60f68;fill-opacity:1;" d="M 70.964844 82.03125 C 70.957031 82.230469 70.929688 82.320312 71.296875 82.644531 L 71.296875 82.320312 L 71.585938 82.320312 L 71.585938 82.007812 C 71.390625 82.023438 71.285156 82.066406 70.964844 81.691406 L 70.964844 82.03125 "/><path style=" stroke:none;fill-rule:nonzero;fill:#b60f68;fill-opacity:1;" d="M 97.34375 132.246094 C 97.113281 131.652344 94.515625 129.84375 93.578125 130.574219 C 94.96875 130.96875 96.460938 132.023438 97.617188 133.167969 C 97.574219 132.890625 97.761719 132.605469 97.34375 132.246094 "/><path style=" stroke:none;fill-rule:nonzero;fill:#b60f68;fill-opacity:1;" d="M 82.71875 39.667969 L 82.71875 39.992188 C 82.753906 39.898438 83.128906 39.789062 83.050781 39.40625 C 84.078125 39.855469 83.761719 37.515625 83.296875 38.539062 C 82.449219 38.464844 82.980469 38.558594 82.421875 39.382812 L 82.71875 39.667969 "/></g></svg>