<svg xmlns="http://www.w3.org/2000/svg" xmlns:xlink="http://www.w3.org/1999/xlink" width="239" zoomAndPan="magnify" viewBox="0 0 179.25 162.75" height="217" preserveAspectRatio="xMidYMid meet" version="1.2"><defs><clipPath id="4c75d34adf"><path d="M 5 12 L 173.46875 12 L 173.46875 151 L 5 151 Z M 5 12 "/></clipPath></defs><g id="5f8e1d5268"><g clip-rule="nonzero" clip-path="url(#4c75d34adf)"><path style=" stroke:none;fill-rule:nonzero;fill:#b60f68;fill-opacity:1;" d="M 145.023438 12.210938 C 145.03125 12.210938 145.03125 12.210938 145.023438 12.210938 Z M 106.265625 146.773438 C 105.828125 146.835938 105.683594 145.902344 105.339844 146.34375 C 104.339844 144.972656 102.425781 143.800781 102.234375 142.09375 C 102.0625 141.859375 102.0625 142.230469 102.042969 141.703125 C 102.46875 138.789062 104.285156 135.226562 103.675781 132.648438 C 103.839844 132.777344 103.070312 132.523438 103.140625 132.550781 C 102.023438 130.058594 91.6875 133.277344 94.449219 130.640625 C 96.238281 127.144531 96.574219 123.203125 99.335938 120.40625 C 97.175781 117.644531 91.542969 119.996094 91.179688 123.640625 C 89.953125 126.300781 87.890625 125.765625 85.332031 126.210938 C 81.304688 127.851562 79.582031 121.75 78.863281 118.445312 C 79.070312 115.210938 79.773438 112.039062 81.496094 110.167969 C 81.460938 109.0625 80.988281 106.574219 81.878906 106.855469 C 82.605469 106.671875 81.761719 105.746094 82.378906 105.746094 C 82.414062 104.890625 83.695312 105.410156 83.804688 104.375 C 84.558594 103.328125 86.394531 104.347656 87.210938 102.867188 C 87.335938 100.777344 89.691406 103.367188 89.78125 101.160156 C 90.363281 102.039062 90.308594 101.496094 90.933594 101.304688 C 91.507812 102.738281 92.597656 101.96875 93.421875 101.839844 C 96.257812 104.546875 94.359375 101.792969 96.375 103.230469 C 96.65625 100.804688 97.148438 104.210938 98.054688 103.3125 C 98.734375 102.332031 95.9375 102.503906 97.792969 101.777344 C 97.863281 100.949219 96.183594 101.621094 96.339844 100.785156 C 96.683594 100.167969 96.972656 100.558594 97.375 100.90625 C 98.480469 100.667969 99.226562 100.050781 100.363281 100.667969 C 101.386719 98.117188 100.582031 101.203125 101.980469 100.394531 C 103.125 99.796875 105.101562 100.359375 105.4375 101.914062 C 106.683594 101.914062 108 100.03125 108.71875 102.195312 C 110.035156 103.394531 109.570312 104.546875 108.726562 105.746094 C 108.726562 106.988281 109.933594 105.011719 109.300781 106.363281 C 109.746094 108.324219 111.261719 114.367188 112.851562 109.988281 C 112.851562 109.988281 112.960938 109.480469 112.949219 109.507812 C 112.894531 93.703125 111.34375 100.261719 122.578125 91.023438 C 123.703125 91.785156 124.757812 90.152344 123.785156 89.597656 C 123.839844 88.832031 124.394531 90.285156 124.558594 89.34375 C 124.894531 89.242188 124.648438 89.949219 125.210938 89.769531 C 127.4375 88.144531 124.832031 89.042969 124.648438 87.851562 C 125.203125 87.742188 125.976562 88.378906 126.3125 87.179688 C 126.511719 86.316406 125.238281 86.707031 125.128906 86 C 126.621094 86.863281 125.492188 85.664062 125.683594 85.128906 C 127.019531 86.128906 125.167969 83.476562 125.210938 83.03125 C 125.648438 81.859375 126.757812 83.21875 126.921875 82.210938 C 126.683594 81.375 127.863281 80.796875 128.480469 81.078125 C 128.027344 81.703125 127.363281 82.441406 127.246094 83.210938 C 128.300781 83.558594 126.855469 84.9375 126.621094 85.65625 C 127.148438 86.007812 129.234375 83.519531 129.382812 82.464844 C 128.574219 79.777344 129.980469 83.828125 132.25 79.585938 C 132.234375 79.613281 132.515625 79.132812 132.507812 79.195312 C 131.6875 77.945312 135.59375 78.46875 136.558594 77.707031 C 130.789062 77.21875 139.082031 77.097656 140.707031 75.953125 C 140.335938 74.308594 140.480469 76.410156 139.835938 75.992188 C 138.871094 74.136719 140.707031 73.191406 141.769531 71.738281 C 141.753906 71.75 142.089844 71.8125 142.089844 71.8125 C 143.1875 71.75 143.777344 71.296875 144.441406 70.503906 C 145.804688 70.851562 146.503906 69.988281 147.574219 69.90625 C 147.792969 69.542969 148.863281 70.105469 148.21875 69.167969 C 148.226562 68.769531 150.042969 68.722656 150.191406 68.941406 C 150.625 68.550781 153.03125 67.398438 151.925781 68.378906 C 151.84375 68.804688 152.441406 68.34375 152.578125 68.433594 C 151.515625 68.878906 147.390625 70.984375 148.945312 71.765625 C 149.183594 73.175781 152.035156 71.214844 152.40625 70.203125 C 153.570312 70.296875 155.347656 69.804688 156.539062 69.234375 C 157.175781 68.953125 157.929688 68.789062 158.574219 68.652344 C 159.28125 68.152344 157.457031 68.679688 158.320312 68.160156 C 159.046875 67.835938 160.054688 68.144531 160.636719 67.40625 C 161.507812 67.199219 161.082031 66.589844 160.445312 66.445312 C 160.199219 65.980469 161.378906 65.171875 160.589844 64.828125 C 157.992188 66.878906 157.746094 68.46875 154.25 67.179688 C 154.386719 66.417969 152.769531 66.570312 153.296875 65.15625 C 153.597656 64.664062 152.960938 64.808594 152.824219 64.621094 C 153.351562 64.292969 154.496094 63.429688 154.6875 62.957031 C 154.132812 63.511719 151.699219 63.503906 152.222656 62.59375 C 162.097656 60.878906 150.679688 57.90625 143.332031 64.957031 C 148.074219 60.957031 153.933594 56.554688 160.789062 58.351562 C 163.332031 58.660156 165.511719 57.515625 167.382812 56 C 169.027344 55.691406 173.042969 55.535156 172.761719 53.121094 C 172.796875 52.839844 172.542969 52.984375 172.953125 52.894531 C 173.359375 52.222656 173.269531 51.765625 173.386719 51.457031 C 173.46875 51.078125 172.734375 51.277344 172.679688 51.132812 C 172.859375 50.957031 172.515625 50.488281 172.515625 50.949219 C 172.253906 50.59375 171.253906 51.757812 171.117188 51.222656 C 172.535156 50.550781 171.363281 49.933594 170.472656 49.933594 C 170.136719 49.433594 172.289062 49.824219 172.050781 49.1875 C 171.488281 48.816406 171.1875 48.359375 170.433594 48.707031 C 169.664062 48.324219 169.535156 47.453125 168.4375 47.660156 C 168.457031 47.671875 168.238281 47.179688 168.226562 47.207031 C 168.972656 46.734375 167.875 46.582031 167.472656 46.554688 C 165.585938 44.273438 168.664062 46.191406 167.675781 43.164062 C 166.121094 37.660156 168.226562 35.128906 162.398438 40.859375 C 161.796875 40.222656 160.933594 41.914062 159.835938 41.640625 C 159.425781 42.25 159.863281 40.8125 159.246094 41.214844 C 159.089844 40.167969 156.300781 40.796875 158.28125 39.804688 C 158.375 39.351562 157.339844 39.714844 157.964844 39.289062 C 158.628906 38.5625 158.535156 37.160156 159.898438 36.871094 C 159.855469 36.746094 159.835938 35.679688 159.652344 36.382812 C 156.875 37.453125 157.09375 33.609375 154.949219 33.554688 C 153.042969 35.054688 147.730469 31.332031 148.074219 35.34375 C 147.78125 36.273438 146.476562 36.644531 145.675781 36.933594 C 148.882812 36.507812 145.078125 40.222656 143.515625 40.339844 C 143.359375 42.882812 146.765625 43.15625 142.015625 46.84375 C 140.480469 48.324219 136.785156 47.925781 136.394531 49.824219 C 136.59375 51.46875 135.902344 53.957031 134.449219 54.863281 C 134.113281 56.289062 134.296875 55.253906 133.277344 55.382812 C 132.769531 55.574219 132.652344 56.589844 132.0625 56.019531 C 127.753906 51.058594 136.320312 48.050781 130.90625 47.734375 C 127.691406 48.34375 126.058594 45.007812 123.378906 44.226562 C 122.632812 43.09375 118.410156 45.308594 120.082031 43.621094 C 122.40625 39.332031 117.375 41.914062 119.625 39.269531 C 121.742188 36.390625 125.976562 34.308594 128.402344 33.203125 C 127.429688 32.203125 131.699219 33.65625 131.363281 31.703125 C 127.820312 30.476562 133.234375 32.257812 133.660156 30.339844 C 134.957031 31.511719 139.425781 29.234375 139.101562 28.152344 C 139.726562 27.660156 143.667969 26.988281 141.84375 26.070312 C 142.398438 25.4375 143.6875 25.925781 144.015625 26.433594 C 144.949219 26.691406 144.25 27.953125 145.601562 27.632812 C 145.75 27.261719 144.984375 26.871094 144.769531 26.453125 C 144.449219 25.664062 146.382812 27.523438 145.613281 25.789062 C 145.496094 25.472656 145.640625 25.609375 145.414062 25.445312 C 143.886719 25.28125 145.777344 24.484375 145.964844 25.410156 C 146.53125 27.144531 149.917969 25.054688 150.960938 24.273438 C 151.226562 23.539062 150.117188 23.464844 150.945312 22.703125 C 150.5 21.640625 153.289062 23.148438 152.695312 21.222656 C 154.3125 20.929688 150.953125 20.742188 152.605469 20.113281 C 151.40625 20.042969 147.65625 18.871094 148.046875 21.058594 C 148.410156 21.585938 146.800781 21.546875 146.492188 21.875 C 145.667969 22.921875 145.277344 23.265625 144.296875 22.65625 C 143.277344 23.164062 144.304688 24.410156 142.667969 24.375 C 142.042969 24.847656 141.371094 23.285156 142.070312 22.984375 C 142.40625 22.449219 143.785156 22.929688 143.476562 21.59375 C 142.789062 19.1875 139.589844 23.65625 139.773438 22.039062 C 141.042969 21.574219 139.074219 20.566406 140.453125 20.757812 C 142.453125 20.667969 140.34375 20.042969 139.78125 20.339844 C 138.074219 20.222656 139.21875 19.6875 139.9375 19.515625 C 139.191406 18.949219 140.171875 19.167969 140.554688 19.269531 C 141.5625 18.789062 139.546875 17.96875 140.890625 17.289062 C 140.152344 15.5625 139.34375 16.527344 141.632812 15.492188 C 143.113281 14.15625 146.964844 14.464844 148.855469 12.636719 C 147.328125 12.664062 143.140625 11.394531 142.933594 13.082031 C 141.605469 12.546875 141.363281 13.257812 140.597656 14.109375 C 140.316406 14.019531 140.0625 14.355469 139.816406 14.5 C 140.554688 15.4375 138.71875 15.863281 138.710938 16.5 C 138.019531 16.691406 134.414062 17.453125 135.832031 18.550781 C 133.757812 18.261719 133.777344 20.523438 135.867188 20.230469 C 137.238281 20.367188 136.875 21.59375 136.003906 20.578125 C 135.785156 20.59375 135.738281 20.941406 135.757812 21.105469 C 134.023438 21.257812 134.777344 22.058594 135.902344 21.277344 C 135.675781 22.8125 132.433594 22.746094 131.226562 23.546875 C 131.605469 23.964844 130.398438 25.699219 130.191406 24.835938 C 129.453125 25.101562 129.207031 26.5625 129.164062 24.847656 C 129.835938 24.238281 130.898438 23.683594 131.261719 22.683594 C 130.898438 22.703125 130.84375 22.875 130.5 22.867188 C 130.027344 21.347656 127.628906 22.730469 127.027344 23.546875 C 124.230469 23.828125 121.796875 23.417969 119.609375 22.992188 C 118.9375 19.640625 112.359375 23.230469 115.238281 22.765625 C 115.183594 22.640625 115.15625 22.511719 115.148438 22.382812 C 116.238281 22.894531 117.285156 21.9375 118.402344 22.058594 C 117.464844 23.566406 114.230469 22.375 113.476562 24.375 C 113.921875 25.007812 113.515625 25.519531 112.722656 25.410156 C 112.804688 21.402344 107.566406 24.808594 104.394531 23.484375 C 108.746094 21.648438 107.21875 21.503906 102.996094 21.414062 C 100.144531 20.132812 97.699219 19.332031 94.832031 20.714844 C 94.484375 20.277344 95.828125 20.421875 95.457031 19.8125 C 97.335938 18.261719 94.066406 19.75 93.539062 20.269531 C 90.988281 21.667969 93.769531 18.304688 92.105469 18.289062 C 91.378906 20.332031 88.382812 19.449219 86.621094 20.457031 C 86.09375 20.332031 85.601562 19.46875 85.03125 20.1875 C 85.347656 20.523438 86.191406 20.929688 85.039062 20.914062 C 84.160156 20.820312 84.984375 20.1875 84.105469 20.203125 C 83.03125 21.703125 83.804688 20.441406 82.652344 20.484375 C 82.886719 21.414062 81.097656 22.140625 80.550781 21.683594 C 83.394531 20.46875 81.261719 20.648438 79.71875 21.402344 C 79.171875 22.53125 78.972656 20.914062 80.515625 20.769531 C 82.152344 20.195312 79.890625 20.195312 79.480469 20.59375 C 79.570312 20.714844 76.957031 21.210938 78.027344 21.8125 C 71.933594 19.296875 65.265625 19.195312 59.042969 18.414062 C 60.253906 17.578125 55.484375 17.832031 55.347656 18.035156 C 55.902344 16.371094 54.277344 17.515625 53.105469 17.769531 C 52.085938 18.496094 49.191406 17.289062 49.191406 18.742188 C 44.882812 18.371094 41.269531 20.875 37.144531 21.566406 C 35.738281 21.183594 34.839844 21.976562 33.75 22.410156 C 33.585938 23.21875 35.675781 23.246094 34.875 24.210938 C 35.046875 23.972656 34.421875 24.792969 34.476562 24.527344 C 34.484375 25.609375 36.5 23.992188 34.757812 25.363281 C 35.648438 25.828125 36.066406 23.992188 36.917969 25.027344 C 35.703125 25.21875 35.484375 26.246094 36.945312 25.4375 C 38.171875 25.71875 36.929688 26.226562 36.417969 25.9375 C 35.011719 26.5625 33.484375 26.960938 31.6875 26.609375 C 31.304688 26.152344 33.414062 25.492188 31.261719 25.671875 C 29.207031 26.390625 26.308594 26.933594 23.996094 27.34375 C 23.8125 27.90625 25.929688 27.988281 24.964844 28.359375 C 21.867188 29.949219 27.445312 29.886719 28.410156 29.460938 C 28 30.550781 31.324219 28.605469 32.140625 28.898438 C 30.46875 29.914062 29.289062 32.148438 26.636719 31.511719 C 25.394531 31.957031 24.074219 33.300781 23.359375 31.992188 C 20.941406 32.9375 19.425781 33.835938 17 34.808594 C 15.964844 35.027344 15.609375 36.054688 16.882812 35.925781 C 16.539062 36.460938 16.765625 36.898438 17.527344 36.796875 C 19.117188 35.980469 17.089844 37.84375 15.957031 36.652344 C 13.941406 37.472656 15.273438 39.722656 17.027344 38.414062 C 17.507812 38.667969 18.21875 37.296875 18.878906 37.515625 C 17.808594 38.988281 12.976562 42.683594 17.816406 40.449219 C 18.691406 39.832031 18.363281 41.59375 19.316406 40.476562 C 19.699219 40.339844 19.082031 40.976562 19.0625 41.113281 C 19.453125 42.492188 20.542969 39.933594 21.414062 40.132812 C 23.195312 40.660156 19.796875 40.433594 21.050781 41.039062 C 21.261719 41.140625 22.167969 41.039062 22.160156 40.769531 C 22.796875 41.058594 23.578125 40.195312 24.039062 39.949219 C 20.714844 42.738281 16.011719 44.382812 11.695312 45.945312 C 11.824219 45.855469 11.40625 46.007812 11.425781 46 C 11.449219 46.253906 11.132812 46.316406 10.933594 46.300781 C 10.960938 46.609375 11.085938 46.863281 11.34375 46.972656 C 11.207031 46.90625 11.769531 46.863281 11.652344 46.917969 C 11.679688 46.90625 11.941406 46.699219 11.886719 46.699219 C 12.621094 46.589844 13.621094 46.691406 14.238281 46.191406 C 18.34375 44.5 23.484375 42.738281 28.28125 40.976562 C 29.617188 39.96875 26.875 39.90625 30.414062 39.113281 C 33.09375 38.652344 37.21875 34.554688 40.007812 36.617188 C 37.953125 35.734375 33.996094 37.886719 33.585938 38.90625 C 33.402344 38.996094 33.59375 39.132812 33.640625 39.195312 C 31.207031 39.640625 32.921875 40.257812 34.347656 39.46875 C 35.972656 38.46875 36.765625 38.160156 38.589844 38.269531 C 39.34375 37.726562 40.660156 38.050781 39.761719 37.160156 C 40.296875 37.453125 40.632812 37.671875 40.042969 36.980469 C 40.789062 37.117188 41.179688 36.261719 42.023438 36.316406 C 42.578125 35.917969 42.785156 35.589844 43.050781 36.398438 C 43.449219 36.453125 45.085938 35.480469 44.339844 36.425781 C 44.367188 39.269531 45.113281 36.171875 46.683594 36.972656 C 42.25 38.859375 49.398438 37.824219 50.40625 38.1875 C 48.417969 38.398438 51.089844 39.515625 51.722656 38.488281 C 51.714844 38.488281 52.085938 38.324219 52.070312 38.34375 C 51.976562 37.5625 54.339844 38.0625 53.257812 38.695312 C 52.652344 38.542969 51.734375 39.085938 51.460938 39.523438 C 52.234375 40.160156 52.675781 40.785156 53.121094 41.675781 C 54.566406 41.785156 54.511719 41.148438 53.605469 40.242188 C 53.457031 39.613281 54.195312 40.078125 54.359375 40.378906 C 54.613281 40.332031 54.984375 40.058594 54.9375 40.449219 C 56.011719 40.097656 55.175781 40.722656 54.984375 41.195312 C 55.457031 43.09375 57.871094 38.070312 57.210938 40.25 C 56.027344 42.101562 56.910156 41.386719 58.164062 41.160156 C 58.535156 41.449219 57.691406 41.550781 57.5 41.621094 C 56.511719 41.992188 57.835938 42.195312 57.65625 42.492188 C 56.4375 42.121094 57.808594 43.347656 56.65625 43.492188 C 56.675781 43.484375 56.445312 43.65625 56.457031 43.648438 C 55.730469 44.246094 57.136719 44.136719 56.246094 44.972656 C 57.046875 45.21875 56.191406 46.089844 57.28125 46.234375 C 56.445312 46.726562 55.15625 48.070312 57.027344 47.070312 C 54.558594 50.378906 58.789062 45.84375 58.652344 47.433594 C 57.828125 48.269531 55.636719 48.789062 56.039062 49.96875 C 55.039062 49.640625 55.410156 50.804688 55.183594 51.214844 C 55.238281 52.230469 56.59375 50.058594 57.066406 50.53125 C 56.464844 51.640625 54.9375 51.175781 57.320312 51.785156 C 56.246094 51.523438 54.984375 51.921875 55.03125 53.109375 C 57.535156 50.839844 54.640625 54.9375 57.753906 53.03125 C 58.027344 54.628906 54.414062 54.046875 54.683594 55.417969 C 55.867188 54.71875 52.542969 57.445312 56.257812 56.488281 C 56.109375 58.097656 56.800781 56.789062 57.390625 56.636719 C 56.582031 57.679688 57.136719 57.625 57.964844 57.136719 C 56.347656 58.832031 59.199219 56.890625 57.617188 58.152344 C 55.8125 60.042969 59.246094 58.070312 57.925781 59.324219 C 57.628906 60.742188 59.054688 58.761719 58.890625 59.613281 C 58.261719 60.640625 59.015625 61.902344 58.101562 63.113281 C 57.273438 63.210938 57.109375 63.375 57.199219 64.011719 C 57.226562 63.917969 56.855469 64.390625 56.9375 64.335938 C 54.558594 65.410156 56.636719 63.4375 57.445312 62.875 C 57.582031 62.175781 56.300781 62.585938 56.019531 62.546875 C 55.03125 62.011719 54.722656 61.429688 54.203125 62.738281 C 53.585938 68.324219 47.417969 72.238281 45.167969 78.050781 C 44.394531 79.777344 43.621094 82.519531 44.820312 84.417969 C 45.195312 83.910156 45.964844 83.09375 46.703125 83.746094 C 46.527344 84.472656 44.785156 83.519531 45.210938 85.019531 C 44.257812 84.847656 44.15625 86.035156 45.03125 86.425781 C 43.429688 87.742188 46.074219 89.734375 44.882812 91.09375 C 48 92.25 50.296875 93.992188 49.425781 97.824219 C 49.554688 103.210938 52.921875 103.4375 51.351562 105.472656 C 53.03125 107.835938 48.589844 104.136719 50.289062 106.707031 C 50.171875 107.316406 51.378906 107.625 51.832031 108.1875 C 52.3125 108.160156 52.832031 107.351562 52.640625 108.363281 C 55.339844 110.042969 52.289062 111.921875 53.414062 112.902344 C 54.3125 111.359375 57.101562 119.199219 57.773438 115.246094 C 57.246094 114.527344 57.292969 112.949219 56.066406 113.519531 C 56.855469 109.378906 52.234375 104.039062 52.449219 99.277344 C 52.441406 97.851562 53.113281 97.054688 54.222656 98.105469 C 54.75 97.40625 54.703125 98.132812 54.984375 98.441406 C 55.929688 98.941406 55.210938 101.457031 55.648438 102.839844 C 54.03125 104.265625 56.183594 103.011719 56.039062 104.054688 C 56.628906 105.71875 58.082031 105.28125 57.820312 106.882812 C 58.34375 108.261719 60.515625 108.523438 58.890625 110.050781 C 60.808594 112.183594 62.777344 114.5 64.210938 117.335938 C 65.539062 122.820312 60.898438 121.449219 66.730469 125.945312 C 71.960938 128.871094 77.382812 133.09375 83.605469 131.078125 C 86.746094 134.203125 89.726562 137.109375 94.375 137.308594 C 94.914062 137.316406 95.757812 136.855469 95.59375 137.789062 C 94.148438 137.398438 97.375 140.613281 97.984375 141.441406 C 97.808594 142.339844 98.582031 142.585938 98.054688 143.449219 C 97.992188 144.265625 99.34375 145.71875 99.71875 144.648438 C 98.835938 142.476562 100.289062 145.574219 101.332031 145.664062 C 102.1875 145.792969 102.125 149.144531 102.625 147.179688 C 103.957031 150.8125 102.40625 145.375 106.964844 149.507812 C 107.136719 150.605469 108.28125 149.914062 108.691406 149.433594 C 107.78125 148.226562 107.753906 148.0625 109.179688 147.410156 Z M 119.828125 21.984375 C 119.300781 21.976562 119.636719 22.503906 119.980469 22.546875 C 120.535156 22.621094 120.21875 21.992188 119.828125 21.984375 Z M 9.070312 47.679688 C 8.234375 48.824219 10.453125 46.953125 10.898438 46.960938 C 10.542969 46.433594 9.390625 46.152344 8.261719 46.878906 C 7.4375 46.691406 4.675781 48.777344 6.148438 48.507812 C 7.84375 47.589844 8.171875 47.453125 9.308594 47.398438 C 9.316406 47.378906 8.988281 47.753906 9.070312 47.679688 Z M 9.070312 47.679688 "/></g></g></svg>