<svg xmlns="http://www.w3.org/2000/svg" xmlns:xlink="http://www.w3.org/1999/xlink" width="239" zoomAndPan="magnify" viewBox="0 0 179.25 162.75" height="217" preserveAspectRatio="xMidYMid meet" version="1.2"><defs><clipPath id="6dd44916bd"><path d="M 43 6 L 134 6 L 134 156.574219 L 43 156.574219 Z M 43 6 "/></clipPath></defs><g id="21eef1bbe0"><g clip-rule="nonzero" clip-path="url(#6dd44916bd)"><path style=" stroke:none;fill-rule:nonzero;fill:#b60f68;fill-opacity:1;" d="M 103.933594 33.632812 C 103.507812 34.167969 104.441406 34.363281 104.675781 34.0625 C 105.113281 33.507812 104.070312 33.457031 103.933594 33.632812 Z M 102.972656 34.917969 C 103.058594 35.414062 102.933594 35.890625 102.941406 36.394531 C 102.457031 38.894531 106.355469 38.398438 106.695312 36.386719 C 108.261719 33.574219 105.054688 35.382812 103.855469 34.558594 C 103.855469 34.578125 103.039062 34.789062 102.972656 34.917969 Z M 89.347656 127.421875 C 89.855469 127.753906 89.25 127.734375 89.378906 128.074219 C 89.582031 128.152344 89.6875 128.199219 89.6875 128.460938 C 91.535156 130.144531 90.757812 125.925781 89.347656 127.421875 Z M 88.980469 152.207031 C 88.988281 151.828125 87.996094 151.402344 88.277344 152.257812 C 88.386719 152.792969 89.171875 153.035156 88.980469 152.207031 Z M 88.054688 153.570312 C 87.308594 153.160156 86.90625 154.503906 88.203125 153.929688 C 88.375 153.753906 88.054688 153.539062 87.949219 153.441406 C 87.976562 153.480469 88.015625 153.53125 88.054688 153.570312 Z M 88.679688 153.53125 C 88.785156 153.628906 88.941406 153.132812 88.660156 153.191406 C 88.277344 153.257812 88.621094 153.460938 88.679688 153.53125 Z M 86.410156 152.917969 C 85.984375 153.238281 87.957031 153.375 87.6875 152.976562 C 87.589844 152.832031 86.519531 152.839844 86.410156 152.917969 Z M 88.695312 154.699219 C 88.96875 154.746094 91.058594 155.503906 90.03125 154.746094 C 89.757812 154.289062 87.878906 154.191406 88.695312 154.699219 Z M 95.503906 155.941406 C 95.496094 156.417969 96.019531 156.378906 96.449219 156.429688 C 95.992188 156.359375 96 155.972656 95.503906 155.941406 Z M 80.46875 148.542969 C 80.488281 148.890625 80.910156 149.601562 81.375 149.386719 C 81.996094 149.105469 80.714844 148.570312 80.46875 148.542969 Z M 79.632812 147.96875 C 78.808594 146.839844 78.769531 148.492188 79.703125 148.851562 C 79.800781 148.550781 79.585938 148.269531 79.632812 147.96875 Z M 73.691406 134.519531 C 73.441406 134.648438 74.238281 135.125 74.433594 134.929688 C 75.003906 134.648438 73.945312 134.5 73.691406 134.519531 Z M 74.761719 133.527344 C 74.605469 133.324219 74.34375 132.886719 74.003906 133.179688 C 73.605469 133.859375 75.84375 134.832031 74.761719 133.527344 Z M 74.820312 132.875 C 74.585938 132.050781 73.429688 132.820312 72.777344 132.625 C 73.390625 133.121094 74.199219 132.886719 74.820312 132.875 Z M 75.753906 132.933594 C 76.132812 132.886719 75.9375 132.410156 75.617188 132.417969 C 75.121094 132.417969 75.296875 132.992188 75.753906 132.933594 Z M 73.3125 128.753906 C 72.15625 127.859375 73.421875 127.488281 72.175781 126.75 C 70.949219 127.324219 73.742188 132.078125 73.3125 128.753906 Z M 48.984375 15.03125 C 50.054688 15.867188 49.277344 15.800781 49.421875 17.023438 C 50.121094 18.046875 50.511719 19.039062 51.277344 19.894531 C 50.609375 23.207031 52.367188 27.507812 48.3125 29.277344 C 48.722656 30.597656 48.070312 29.917969 47.535156 30.503906 C 48.90625 31.804688 46.320312 31.582031 45.707031 32.253906 C 45.511719 34.945312 42.234375 38.28125 45.261719 40.351562 C 45.113281 41.296875 45.851562 40.585938 45.699219 40.089844 C 44.792969 39.894531 46.085938 39.566406 46.25 40.03125 C 44.132812 43.164062 42.671875 43.414062 44.0625 47.128906 C 47.378906 51.15625 52.707031 59.761719 54.828125 66.035156 C 58.152344 70.097656 64.007812 70.972656 66.984375 75.203125 C 69.519531 86.191406 67.3125 97.210938 70.074219 107.847656 C 70.863281 112.085938 67.898438 116.609375 70.746094 120.429688 C 71.804688 122.472656 70.183594 125.476562 72.796875 126.90625 C 72.109375 125.953125 73.253906 126.683594 73.246094 126.15625 C 72.59375 125.175781 73.632812 125.816406 73.9375 126.109375 C 74.859375 125.242188 74.246094 126.058594 74.1875 126.664062 C 75.054688 127.089844 74.179688 127.5 74.597656 127.945312 C 74.414062 128.714844 75.210938 129.164062 74.683594 129.8125 C 75.199219 130.609375 75.65625 130.582031 75.335938 131.582031 C 77.339844 132.496094 75.609375 133.023438 75.746094 134.316406 C 74.207031 134.246094 75.5 134.8125 75.890625 135.414062 C 75.871094 135.375 76.105469 136.105469 76.125 136 C 75.976562 136.628906 74.976562 135.386719 74.949219 135.355469 C 74.566406 134.96875 72.808594 135.191406 73.644531 135.832031 C 71.972656 136.96875 74.363281 138.652344 73.34375 136.953125 C 78.28125 137.972656 74.859375 137.410156 76.015625 139.429688 C 76.054688 140.226562 76.910156 140.265625 77.308594 141.054688 C 76.910156 142.398438 76.300781 139.917969 75.53125 140.132812 C 75.785156 138.761719 75.199219 140.226562 74.753906 139.808594 C 74.023438 141.902344 76.375 140.890625 76.28125 141.746094 C 76.125 142.359375 75.023438 140.9375 75.199219 141.882812 C 75.675781 142.183594 75.328125 142.71875 76.210938 143 C 76.640625 143.535156 76.035156 143.105469 75.957031 143.40625 C 76.085938 143.75 76.503906 143.730469 76.707031 143.882812 C 76.960938 144.585938 76.738281 145.742188 77.640625 145.839844 C 77.863281 144.914062 77.347656 144.449219 77.039062 144 C 77.691406 143.691406 78.457031 144.554688 78.710938 145.121094 C 77.765625 146.480469 78.992188 145.839844 78.710938 146.910156 C 77.765625 147.140625 78.507812 148.105469 79.0625 147.289062 C 79.710938 143.515625 81.628906 151.195312 83.058594 147.753906 C 84.242188 148.40625 81.878906 149.019531 82.492188 149.804688 C 84.496094 149.183594 88.503906 149.554688 83.125 150.3125 C 84.835938 151.585938 81.617188 150.195312 80.925781 150.148438 C 82.414062 152.605469 88.714844 148.511719 85.90625 151.402344 C 84 150.777344 83.972656 152.480469 85.441406 152.917969 C 86.0625 152.820312 86.101562 152.433594 85.625 152.050781 C 84.601562 150.933594 86.964844 152.441406 87.289062 152.519531 C 89.230469 152.246094 85.496094 149.640625 88.296875 149.523438 C 90.242188 149.027344 87.539062 150.75 88.503906 151.234375 C 92.265625 151.089844 87.179688 152.414062 91.652344 153.511719 C 89.152344 152.527344 88.707031 155.136719 91.167969 154.144531 C 91.371094 154.453125 90.90625 154.871094 91.363281 155.183594 C 93.265625 156.507812 92.0625 154.601562 93.113281 155.222656 C 93.003906 155.914062 93.363281 155.941406 93.917969 155.679688 C 94.210938 155.972656 94.523438 156.574219 95.058594 156.320312 C 92.867188 153.949219 94.152344 155.535156 96.28125 155.378906 C 94.792969 154.054688 97.953125 156.011719 96.921875 154.738281 C 97.457031 154.6875 98.089844 154.621094 98.625 154.5625 C 95.570312 153.171875 90.789062 150.964844 89.210938 148.851562 C 93.25 150.128906 86.917969 146.910156 88.125 145.011719 C 89.496094 144.359375 89.6875 143.582031 89.097656 142.203125 C 94.445312 137.3125 87.171875 138.894531 86.644531 135.289062 C 86.296875 134.421875 87.773438 133.238281 88.492188 133.488281 C 89.855469 133.769531 88.414062 132.710938 89.171875 132.128906 C 88.289062 130.660156 89.105469 129.863281 89.523438 128.976562 C 88.902344 128.519531 87.910156 128.648438 89 127.9375 C 88.164062 127.003906 87.363281 125.945312 86.886719 124.484375 C 89.269531 124.15625 92.65625 127.070312 91.421875 122.042969 C 89.621094 118.417969 92.859375 121.335938 95.457031 119.90625 C 97.972656 120.175781 101.445312 115.238281 98.5 114.253906 C 97.671875 110.871094 96.671875 112.105469 95.019531 109.871094 C 103.4375 112.921875 104.691406 110.589844 105.917969 103.421875 C 108.523438 99.28125 107.621094 102.101562 106.785156 104.238281 C 109.683594 100.085938 111.761719 95.195312 110.089844 90.382812 C 110.539062 90.519531 110.429688 90.285156 110.324219 90.023438 C 110.917969 90.277344 111.625 90.011719 111.179688 89.332031 C 112.53125 88.632812 113.648438 87.523438 114.824219 86.699219 C 115.546875 86.792969 116.652344 87.582031 115.808594 86.277344 C 116.605469 86.621094 116.449219 85.328125 117.375 85.785156 C 116.613281 84.199219 118.25 85.636719 118.269531 84.714844 C 119.144531 84.800781 119.582031 85.628906 119.980469 84.375 C 120.183594 85.152344 122.652344 85.460938 122.273438 83.867188 C 124.597656 82.632812 123.9375 79.441406 125.84375 77.480469 C 126.476562 72.996094 126.875 67.960938 126.484375 63.691406 C 126.875 63.105469 126.554688 61.035156 127.457031 62.699219 C 128.515625 62.222656 129.753906 59.304688 129.695312 57.90625 C 133.886719 57.339844 136.132812 45.847656 131.105469 45.585938 C 127.28125 44.804688 125.335938 39.28125 120.738281 40.761719 C 119.792969 40.703125 117.820312 39.273438 117.121094 39.835938 C 116.03125 39 114.019531 42.917969 114.765625 39.90625 C 113.796875 39.261719 115.769531 38.445312 114.378906 38.222656 C 112.863281 37.472656 110.273438 35.539062 107.902344 35.878906 C 107.339844 37.5625 105.957031 38.007812 105.296875 39.75 C 104.847656 39.332031 105.78125 37.746094 104.789062 38.863281 C 104.421875 38.039062 103.398438 38.882812 102.894531 38.125 C 102.351562 35.226562 101.152344 38.15625 99.761719 37.746094 C 99.035156 37.09375 104.023438 36.230469 101.347656 35.53125 C 102.066406 34.234375 103.351562 32.941406 104.402344 31.757812 C 104.109375 31.347656 104.984375 30.492188 103.953125 30.230469 C 103.410156 30.101562 103.644531 28.507812 103.167969 29.753906 C 102.144531 28.410156 102.882812 25.417969 101.339844 24.792969 C 101.105469 24.542969 101.074219 24.121094 100.726562 23.976562 C 98.1875 20.960938 94.453125 20.980469 91.058594 20.921875 C 90.410156 21.613281 89.007812 17.996094 88.257812 19.300781 C 87.871094 15.226562 84.769531 15.632812 82.203125 15.148438 C 85.273438 14.75 82.191406 11.277344 80.925781 12.667969 C 80.597656 11.492188 79.1875 10.957031 80.871094 10.832031 C 80.605469 10.109375 77.542969 10.9375 76.765625 11.519531 C 74.761719 12.84375 73.148438 9.90625 70.921875 10.945312 C 69.84375 11.441406 69.25 10.773438 69.335938 9.710938 C 67.761719 7.484375 61.421875 9.535156 63.8125 12.523438 C 64.183594 15.285156 61.128906 13.71875 62.1875 11.929688 C 63.316406 11.074219 63.027344 10.089844 62.285156 9.15625 C 66.167969 7.027344 62.929688 5.707031 60.769531 8.574219 C 59.339844 9.429688 57.960938 8.691406 57.472656 10.363281 C 57.210938 10.140625 56.800781 9.34375 56.472656 9.964844 C 54.195312 11.492188 55.539062 13.609375 52.515625 15.167969 C 52.5625 17.511719 51.523438 14.601562 50.414062 13.933594 "/></g></g></svg>